<?xml version="1.0" encoding="UTF-8"?>
<svg id="Layer_1" xmlns="http://www.w3.org/2000/svg" viewBox="0 0 366.53 69.92">
  <defs>
    <style>
      .cls-1 {
        fill: #989898;
      }

      .cls-1, .cls-2 {
        opacity: .99;
      }

      .cls-1, .cls-2, .cls-3 {
        isolation: isolate;
      }

      .cls-2 {
        fill: #f58d8f;
      }

      .cls-4 {
        fill: #41a185;
      }

      .cls-5 {
        fill: #42a185;
      }

      .cls-6 {
        fill: #78787f;
      }

      .cls-7 {
        opacity: .98;
      }
    </style>
  </defs>
  <g id="text6006-6-1">
    <path id="path5146" class="cls-5" d="M59.54,54.22c0-2.67.39-4.98,1.16-6.96.77-2.01,1.8-3.67,3.07-4.98,1.28-1.31,2.74-2.3,4.4-2.96,1.66-.66,3.36-.99,5.1-.99,4.06,0,7.17,1.28,9.33,3.83,2.16,2.51,3.25,6.36,3.25,11.53,0,.23,0,.54,0,.93,0,.35-.02.68-.06.99h-20.63c.23,3.13,1.14,5.51,2.72,7.13,1.58,1.62,4.06,2.43,7.42,2.43,1.89,0,3.48-.15,4.75-.46,1.31-.35,2.3-.68,2.96-.99l.75,4.52c-.66.35-1.82.71-3.48,1.1-1.62.39-3.48.58-5.56.58-2.63,0-4.91-.39-6.84-1.16-1.89-.81-3.46-1.91-4.69-3.3-1.24-1.39-2.16-3.03-2.78-4.93-.58-1.93-.87-4.04-.87-6.32h0ZM80.23,51.26c.04-2.43-.58-4.42-1.85-5.97-1.24-1.58-2.96-2.38-5.16-2.38-1.24,0-2.34.25-3.3.75-.93.46-1.72,1.08-2.38,1.85-.66.77-1.18,1.66-1.56,2.67-.35,1-.58,2.03-.7,3.07h14.95Z"/>
    <path id="path5148" class="cls-5" d="M90.49,39.96c1.24-.31,2.88-.64,4.93-.99,2.05-.35,4.4-.52,7.07-.52,2.4,0,4.39.35,5.97,1.04,1.58.66,2.84,1.6,3.77,2.84.97,1.2,1.64,2.65,2.03,4.35.39,1.7.58,3.57.58,5.62v16.92h-5.39v-15.76c0-1.85-.14-3.44-.41-4.75-.23-1.31-.64-2.38-1.22-3.19-.58-.81-1.35-1.39-2.32-1.74-.97-.39-2.16-.58-3.59-.58-.58,0-1.18.02-1.8.06-.62.04-1.22.1-1.8.17-.54.04-1.04.1-1.51.17-.43.08-.73.14-.93.17v25.44h-5.39v-29.27Z"/>
    <path id="path5150" class="cls-5" d="M118.98,54.22c0-2.67.39-4.98,1.16-6.96.77-2.01,1.8-3.67,3.07-4.98,1.28-1.31,2.74-2.3,4.4-2.96s3.36-.99,5.1-.99c4.06,0,7.17,1.28,9.33,3.83,2.16,2.51,3.25,6.36,3.25,11.53v.93c0,.35-.02.68-.06.99h-20.63c.23,3.13,1.14,5.51,2.72,7.13,1.58,1.62,4.06,2.43,7.42,2.43,1.89,0,3.48-.15,4.75-.46,1.31-.35,2.3-.68,2.96-.99l.75,4.52c-.66.35-1.82.71-3.48,1.1-1.62.39-3.48.58-5.56.58-2.63,0-4.91-.39-6.84-1.16-1.89-.81-3.46-1.91-4.69-3.3-1.24-1.39-2.16-3.03-2.78-4.93-.58-1.93-.87-4.04-.87-6.32h0ZM139.67,51.26c.04-2.43-.58-4.42-1.85-5.97-1.24-1.58-2.96-2.38-5.16-2.38-1.24,0-2.34.25-3.3.75-.93.46-1.72,1.08-2.38,1.85-.66.77-1.18,1.66-1.56,2.67-.35,1-.58,2.03-.7,3.07h14.95Z"/>
    <path id="path5152" class="cls-5" d="M161.18,65.34c1.28,0,2.4-.02,3.36-.06,1-.08,1.84-.19,2.49-.35v-8.98c-.39-.19-1.02-.35-1.91-.46-.85-.15-1.89-.23-3.13-.23-.81,0-1.68.06-2.61.17-.89.12-1.72.37-2.49.75-.73.35-1.35.85-1.85,1.51-.5.62-.75,1.45-.75,2.49,0,1.93.62,3.28,1.85,4.06,1.24.73,2.92,1.1,5.04,1.1h0ZM160.71,38.33c2.16,0,3.98.29,5.45.87,1.51.54,2.7,1.33,3.59,2.38.93,1,1.58,2.22,1.97,3.65.39,1.39.58,2.94.58,4.64v18.84c-.46.08-1.12.19-1.97.35-.81.12-1.74.23-2.78.35-1.04.12-2.18.21-3.42.29-1.2.12-2.4.17-3.59.17-1.7,0-3.27-.17-4.69-.52-1.43-.35-2.67-.89-3.71-1.62-1.04-.77-1.85-1.78-2.43-3.01-.58-1.24-.87-2.72-.87-4.46s.33-3.09.99-4.29c.7-1.2,1.62-2.16,2.78-2.9,1.16-.73,2.51-1.28,4.06-1.62,1.55-.35,3.17-.52,4.87-.52.54,0,1.1.04,1.68.12.58.04,1.12.12,1.62.23.54.08,1,.15,1.39.23.39.08.66.14.81.17v-1.51c0-.89-.1-1.76-.29-2.61-.19-.89-.54-1.66-1.04-2.32-.5-.7-1.2-1.24-2.09-1.62-.85-.43-1.97-.64-3.36-.64-1.78,0-3.34.14-4.69.41-1.31.23-2.3.48-2.96.75l-.64-4.46c.7-.31,1.85-.6,3.48-.87,1.62-.31,3.38-.46,5.27-.46Z"/>
    <path id="path5154" class="cls-5" d="M183.14,39.09h11.42v4.52h-11.42v13.91c0,1.51.12,2.76.35,3.77.23.97.58,1.74,1.04,2.32.46.54,1.04.93,1.74,1.16.7.23,1.51.35,2.43.35,1.62,0,2.92-.17,3.88-.52,1-.39,1.7-.66,2.09-.81l1.04,4.46c-.54.27-1.49.6-2.84.99-1.35.43-2.9.64-4.64.64-2.05,0-3.75-.25-5.1-.75-1.31-.54-2.38-1.33-3.19-2.38-.81-1.04-1.39-2.32-1.74-3.83-.31-1.55-.46-3.32-.46-5.33v-26.89l5.39-.93v9.33Z"/>
    <path id="path5156" class="cls-5" d="M199.35,69.23V25.18l5.39-.93v15.42c1-.39,2.07-.68,3.19-.87,1.16-.23,2.3-.35,3.42-.35,2.4,0,4.39.35,5.97,1.04,1.58.66,2.84,1.6,3.77,2.84.97,1.2,1.64,2.65,2.03,4.35.39,1.7.58,3.57.58,5.62v16.92h-5.39v-15.76c0-1.85-.14-3.44-.41-4.75-.23-1.31-.64-2.38-1.22-3.19-.58-.81-1.35-1.39-2.32-1.74-.97-.39-2.16-.58-3.59-.58-.58,0-1.18.04-1.8.12-.62.08-1.22.17-1.8.29-.54.08-1.04.17-1.51.29-.43.12-.73.21-.93.29v25.04h-5.39Z"/>
    <path id="path5158" class="cls-1" d="M240.54,65.34c1.28,0,2.4-.02,3.36-.06,1-.08,1.84-.19,2.49-.35v-8.98c-.39-.19-1.02-.35-1.91-.46-.85-.15-1.89-.23-3.13-.23-.81,0-1.68.06-2.61.17-.89.12-1.72.37-2.49.75-.73.35-1.35.85-1.85,1.51-.5.62-.75,1.45-.75,2.49,0,1.93.62,3.28,1.85,4.06,1.24.73,2.92,1.1,5.04,1.1h0ZM240.08,38.33c2.16,0,3.98.29,5.45.87,1.51.54,2.7,1.33,3.59,2.38.93,1,1.58,2.22,1.97,3.65.39,1.39.58,2.94.58,4.64v18.84c-.46.08-1.12.19-1.97.35-.81.12-1.74.23-2.78.35-1.04.12-2.18.21-3.42.29-1.2.12-2.4.17-3.59.17-1.7,0-3.27-.17-4.69-.52-1.43-.35-2.67-.89-3.71-1.62-1.04-.77-1.85-1.78-2.43-3.01-.58-1.24-.87-2.72-.87-4.46s.33-3.09.99-4.29c.7-1.2,1.62-2.16,2.78-2.9,1.16-.73,2.51-1.28,4.06-1.62,1.55-.35,3.17-.52,4.87-.52.54,0,1.1.04,1.68.12.58.04,1.12.12,1.62.23.54.08,1,.15,1.39.23.39.08.66.14.81.17v-1.51c0-.89-.1-1.76-.29-2.61-.19-.89-.54-1.66-1.04-2.32-.5-.7-1.2-1.24-2.09-1.62-.85-.43-1.97-.64-3.36-.64-1.78,0-3.34.14-4.69.41-1.31.23-2.3.48-2.96.75l-.64-4.46c.7-.31,1.85-.6,3.48-.87,1.62-.31,3.38-.46,5.27-.46h0Z"/>
    <path id="path5160" class="cls-5" d="M261.46,39.09h11.42v4.52h-11.42v13.91c0,1.51.12,2.76.35,3.77.23.97.58,1.74,1.04,2.32.46.54,1.04.93,1.74,1.16.7.23,1.51.35,2.43.35,1.62,0,2.92-.17,3.88-.52,1-.39,1.7-.66,2.09-.81l1.04,4.46c-.54.27-1.49.6-2.84.99-1.35.43-2.9.64-4.64.64-2.05,0-3.75-.25-5.1-.75-1.31-.54-2.38-1.33-3.19-2.38-.81-1.04-1.39-2.32-1.74-3.83-.31-1.55-.46-3.32-.46-5.33v-26.89l5.39-.93v9.33Z"/>
    <path id="path5162" class="cls-5" d="M288.8,38.45c.46,0,.99.04,1.56.12.62.04,1.22.12,1.8.23.58.08,1.1.17,1.56.29.5.08.87.15,1.1.23l-.93,4.69c-.43-.15-1.14-.33-2.14-.52-.97-.23-2.22-.35-3.77-.35-1,0-2.01.12-3.01.35-.97.19-1.6.33-1.91.41v25.33h-5.39v-28.86c1.28-.46,2.86-.89,4.75-1.28,1.89-.43,4.02-.64,6.38-.64Z"/>
    <path id="path5164" class="cls-5" d="M296.35,54.22c0-2.67.39-4.98,1.16-6.96.77-2.01,1.8-3.67,3.07-4.98,1.28-1.31,2.74-2.3,4.4-2.96,1.66-.66,3.36-.99,5.1-.99,4.06,0,7.17,1.28,9.33,3.83,2.16,2.51,3.25,6.36,3.25,11.53v.93c0,.35-.02.68-.06.99h-20.63c.23,3.13,1.14,5.51,2.72,7.13,1.58,1.62,4.06,2.43,7.42,2.43,1.89,0,3.48-.15,4.75-.46,1.31-.35,2.3-.68,2.96-.99l.75,4.52c-.66.35-1.82.71-3.48,1.1-1.62.39-3.48.58-5.56.58-2.63,0-4.91-.39-6.84-1.16-1.89-.81-3.46-1.91-4.69-3.3-1.24-1.39-2.16-3.03-2.78-4.93-.58-1.93-.87-4.04-.87-6.32h0ZM317.04,51.26c.04-2.43-.58-4.42-1.85-5.97-1.24-1.58-2.96-2.38-5.16-2.38-1.24,0-2.34.25-3.3.75-.93.46-1.72,1.08-2.38,1.85-.66.77-1.18,1.66-1.56,2.67-.35,1-.58,2.03-.7,3.07h14.95Z"/>
    <path id="path5166" class="cls-5" d="M326.66,54.22c0-2.67.39-4.98,1.16-6.96.77-2.01,1.8-3.67,3.07-4.98,1.28-1.31,2.74-2.3,4.4-2.96,1.66-.66,3.36-.99,5.1-.99,4.06,0,7.17,1.28,9.33,3.83,2.16,2.51,3.25,6.36,3.25,11.53v.93c0,.35-.02.68-.06.99h-20.63c.23,3.13,1.14,5.51,2.72,7.13,1.58,1.62,4.06,2.43,7.42,2.43,1.89,0,3.48-.15,4.75-.46,1.31-.35,2.3-.68,2.96-.99l.75,4.52c-.66.35-1.82.71-3.48,1.1-1.62.39-3.48.58-5.56.58-2.63,0-4.91-.39-6.84-1.16-1.89-.81-3.46-1.91-4.69-3.3-1.24-1.39-2.16-3.03-2.78-4.93-.58-1.93-.87-4.04-.87-6.32ZM347.35,51.26c.04-2.43-.58-4.42-1.85-5.97-1.24-1.58-2.96-2.38-5.16-2.38-1.24,0-2.34.25-3.3.75-.93.46-1.72,1.08-2.38,1.85-.66.77-1.18,1.66-1.56,2.67-.35,1-.58,2.03-.7,3.07h14.95Z"/>
  </g>
  <path id="circle8284" class="cls-2" d="M16.82,25.47c-1.31,0-2.5.75-3.08,1.92-.86,1.72-.16,3.8,1.55,4.66h0c1.72.86,3.8.16,4.66-1.55,0,0,0,0,0,0,.86-1.72.16-3.8-1.55-4.66-.49-.25-1.03-.37-1.58-.37ZM14.21,31.71l-.4,1.94.52.21.57-1.63c-.15-.1-.3-.2-.44-.32-.07-.06-.13-.12-.19-.18l-.05-.02h0ZM13.94,32.31l-.86.14.08.25h0l.71-.02v-.06s.08-.31.08-.31h0s0,0,0,0Z"/>
  <g id="g933">
    <g id="path5144">
      <path class="cls-5" d="M34.48,40.42c.66-.43,1.64-.87,2.96-1.33,1.35-.46,2.9-.7,4.64-.7,2.16,0,4.08.39,5.74,1.16,1.7.77,3.13,1.85,4.29,3.25,1.16,1.39,2.03,3.05,2.61,4.98.62,1.93.93,4.06.93,6.38,0,2.43-.37,4.64-1.1,6.61-.7,1.93-1.7,3.57-3.01,4.93-1.31,1.35-2.9,2.4-4.75,3.13-1.85.73-3.94,1.1-6.26,1.1-2.51,0-4.73-.17-6.67-.52-1.93-.35-3.52-.7-4.75-1.04V25.18l5.39-.93v16.17ZM34.48,64.53c.54.15,1.29.31,2.26.46,1,.12,2.24.17,3.71.17,2.9,0,5.22-.95,6.96-2.84,1.74-1.93,2.61-4.66,2.61-8.17,0-1.55-.15-2.99-.46-4.35s-.81-2.51-1.51-3.48c-.7-1-1.6-1.78-2.72-2.32-1.08-.58-2.4-.87-3.94-.87s-2.82.25-4.06.75c-1.24.5-2.18,1.02-2.84,1.56v19.07Z"/>
    </g>
    <g id="path6010-7-78" class="cls-7">
      <path class="cls-5" d="M47.35,0c-2.12.55-3.72,2.3-4.1,4.48-.37,2.17.55,4.36,2.35,5.59,2.12-.55,3.72-2.3,4.1-4.48.37-2.17-.55-4.36-2.35-5.59Z"/>
    </g>
    <g id="path6012-2-8" class="cls-7">
      <path class="cls-5" d="M58.5,12.79c-.1,0-.21,0-.31.01-2.06.12-3.89,1.34-4.76,3.19.01.02.02.05.03.07-.01.02-.02.05-.03.07.87,1.85,2.7,3.07,4.76,3.19.1,0,.2.01.31.01.01,0,.03,0,.04,0,.01,0,.03,0,.04,0,.1,0,.2,0,.31-.01.06,0,.11,0,.17,0,2-.17,3.75-1.39,4.59-3.18-.01-.02-.02-.05-.03-.07.01-.02.02-.05.03-.07-.87-1.85-2.7-3.07-4.76-3.19-.01,0-.03,0-.04,0-.09,0-.18,0-.27-.01-.01,0-.03,0-.04,0-.01,0-.03,0-.04,0h0Z"/>
    </g>
    <g id="path6014-8-6">
      <path class="cls-5" d="M46.52,15c-.49-.02-.98-.02-1.47,0-8.01.37-14.2,6.15-13.91,13,0,.1.02.21.03.31h3.31v-.54h0c0-.26.01-.52.04-.77,0-.09,0-.18,0-.27.46-6.05,5.91-10.96,12.96-11.67-.32-.04-.64-.06-.97-.08h0Z"/>
    </g>
    <g id="path6018-9-6" class="cls-7">
      <path class="cls-4" d="M16.01,0c2.12.55,3.72,2.3,4.1,4.48.37,2.17-.55,4.36-2.35,5.59-2.12-.55-3.72-2.3-4.1-4.48-.37-2.17.55-4.36,2.35-5.59Z"/>
    </g>
    <g id="path6020-96-7" class="cls-7">
      <path class="cls-5" d="M5.15,12.79c.1,0,.21,0,.31.01,2.06.12,3.89,1.34,4.76,3.19-.01.02-.02.05-.03.07.01.02.02.05.03.07-.87,1.85-2.7,3.07-4.76,3.19-.1,0-.2.01-.31.01-.01,0-.03,0-.04,0-.01,0-.03,0-.04,0-.1,0-.2,0-.31-.01-.06,0-.11,0-.17,0-2-.17-3.75-1.39-4.59-3.18.01-.02.02-.05.03-.07-.01-.02-.02-.05-.03-.07.87-1.85,2.7-3.07,4.76-3.19.01,0,.03,0,.04,0,.09,0,.18,0,.27-.01.01,0,.03,0,.04,0,.01,0,.03,0,.04,0h0Z"/>
    </g>
    <g id="path8195" class="cls-7">
      <path class="cls-5" d="M45.6,22.21c-1.81,1.23-2.73,3.42-2.35,5.59.38,2.17,1.98,3.93,4.1,4.48,1.81-1.23,2.73-3.42,2.35-5.59-.38-2.17-1.98-3.93-4.1-4.48Z"/>
    </g>
    <g id="path8440">
      <path class="cls-5" d="M17.04,15c.49-.02.98-.02,1.47,0,8.01.37,14.2,6.15,13.91,13,0,.1-.02.21-.03.31h-3.31v-.54h0c0-.26-.01-.52-.04-.77,0-.09,0-.18,0-.27-.46-6.05-5.91-10.96-12.96-11.67.32-.04.64-.06.97-.08h0Z"/>
    </g>
  </g>
  <g id="text4145" class="cls-3">
    <g class="cls-3">
      <g>
        <path class="cls-6" d="M357.31,45.09v-5.25h-1.96v-.7h4.72v.7h-1.97v5.25h-.79Z"/>
        <path class="cls-6" d="M360.85,45.09v-5.95h1.19l1.41,4.22c.13.39.22.69.28.88.07-.22.17-.53.32-.95l1.43-4.14h1.06v5.95h-.76v-4.98l-1.73,4.98h-.71l-1.72-5.07v5.07h-.76Z"/>
      </g>
    </g>
  </g>
</svg>