<svg xmlns="http://www.w3.org/2000/svg" viewBox="0 0 300 300"><path d="M185.77 162.87V136.1h16.6v3.47h-12.56v8.16h11.37v3.46h-11.37v11.67h-4.04Zm24.94.45c-1.27 0-2.42-.24-3.45-.71a5.795 5.795 0 0 1-2.44-2.08c-.59-.91-.89-2.02-.89-3.33 0-1.13.22-2.07.65-2.8s1.02-1.31 1.76-1.74c.74-.43 1.57-.75 2.48-.97.92-.22 1.86-.38 2.8-.5l2.93-.34c.75-.1 1.3-.25 1.64-.46.34-.21.51-.55.51-1.02v-.09c0-1.14-.32-2.03-.97-2.65-.64-.63-1.59-.94-2.85-.94s-2.35.29-3.11.88c-.75.58-1.27 1.22-1.55 1.92l-3.67-.84c.44-1.22 1.07-2.21 1.91-2.96.84-.76 1.84-1.32 2.92-1.65 1.12-.35 2.29-.53 3.46-.52.8 0 1.65.1 2.55.29.91.18 1.75.52 2.54 1.02s1.44 1.21 1.95 2.13.76 2.1.76 3.57v13.33h-3.82v-2.75h-.16c-.29.56-.68 1.06-1.14 1.49-.51.49-1.15.89-1.95 1.22-.79.32-1.74.48-2.85.48v.02Zm.85-3.14c1.08 0 2.01-.21 2.77-.64.77-.43 1.36-.98 1.76-1.67.41-.7.61-1.44.61-2.24v-2.59c-.14.14-.41.27-.81.39-.39.11-.84.21-1.35.3-.49.08-.98.15-1.48.22-.48.06-.88.11-1.2.16-.71.08-1.41.25-2.08.48-.57.19-1.08.53-1.49.98-.37.42-.55.97-.55 1.67 0 .97.36 1.7 1.07 2.2.72.49 1.63.73 2.73.73h.02Zm13.87 2.69v-20.08h3.78v3.19h.21a4.909 4.909 0 0 1 1.93-2.55c.93-.63 2.04-.96 3.16-.94.55 0 1.11.03 1.66.09v3.74c-.28-.07-.55-.11-.84-.15-.4-.06-.8-.09-1.2-.09-.93 0-1.75.2-2.47.59a4.398 4.398 0 0 0-2.33 3.94v12.26h-3.91.01Zm13.74 0v-20.08h3.75v3.27h.25c.38-1.06 1.1-1.97 2.05-2.59.95-.63 2.09-.94 3.41-.94s2.47.31 3.37.94c.92.63 1.59 1.49 2.03 2.59h.21a5.634 5.634 0 0 1 2.29-2.56c1.05-.65 2.29-.97 3.74-.97 1.82 0 3.31.57 4.46 1.71 1.16 1.14 1.74 2.86 1.74 5.16v13.46h-3.91v-13.1c0-1.36-.37-2.35-1.11-2.96s-1.62-.92-2.65-.92c-1.27 0-2.26.39-2.97 1.18-.71.78-1.06 1.77-1.06 3v12.8h-3.9v-13.35c0-1.09-.34-1.97-1.02-2.63s-1.56-.99-2.65-.99c-.73 0-1.44.2-2.05.59-.63.4-1.15.95-1.5 1.61-.37.69-.56 1.49-.56 2.39v12.38h-3.92Z" style="fill:#949ea7"/><path d="M125.28 162.87h-8.67V136.1h8.94c2.62 0 4.88.54 6.76 1.61 1.88 1.06 3.33 2.59 4.33 4.59 1.01 1.99 1.51 4.37 1.51 7.15s-.51 5.19-1.53 7.19c-.96 1.95-2.49 3.57-4.39 4.63-1.92 1.07-4.23 1.61-6.95 1.61Zm-4.63-3.53h4.4c2.04 0 3.73-.38 5.09-1.15a7.264 7.264 0 0 0 3.03-3.36c.67-1.47 1.01-3.27 1.01-5.39s-.34-3.88-1.01-5.35c-.66-1.46-1.65-2.58-2.97-3.33s-2.95-1.14-4.9-1.14h-4.65v19.71Zm22.21 3.53v-20.08h3.91v20.08h-3.91Zm1.98-23.18c-.68 0-1.26-.23-1.75-.68-.46-.42-.72-1.02-.72-1.65s.24-1.19.72-1.65c.49-.46 1.07-.69 1.75-.69s1.26.23 1.74.69c.49.45.73 1 .73 1.65s-.24 1.18-.73 1.65c-.48.45-1.06.68-1.74.68Zm15.61 31.12c-1.59 0-2.97-.21-4.12-.63-1.14-.42-2.07-.97-2.8-1.66a6.956 6.956 0 0 1-1.62-2.26l3.36-1.38c.23.38.55.79.94 1.22.4.43.94.81 1.62 1.11.69.31 1.57.46 2.65.46 1.48 0 2.71-.36 3.67-1.09.97-.71 1.45-1.86 1.45-3.42v-3.95h-.25c-.29.51-.63.99-1.02 1.43-.43.52-1.04.97-1.8 1.36-.77.38-1.76.57-2.99.57-1.59 0-3.01-.37-4.29-1.11-1.26-.75-2.27-1.85-3.01-3.31-.73-1.47-1.1-3.26-1.1-5.4s.36-3.96 1.09-5.49c.73-1.52 1.73-2.69 3.01-3.5 1.27-.82 2.71-1.23 4.33-1.23 1.25 0 2.25.21 3.02.63.77.41 1.36.89 1.79 1.44.44.55.77 1.03 1.01 1.45h.29v-3.25h3.83v20.52c0 1.73-.4 3.14-1.2 4.25s-1.89 1.93-3.25 2.46-2.89.8-4.6.8v-.02Zm-.04-11.49c1.13 0 2.07-.26 2.85-.78.78-.53 1.38-1.29 1.78-2.27.41-.99.61-2.18.61-3.57s-.2-2.54-.6-3.57c-.4-1.03-.99-1.83-1.77-2.41s-1.73-.88-2.87-.88-2.16.31-2.94.92c-.78.6-1.38 1.42-1.78 2.46-.39 1.04-.59 2.2-.59 3.48s.2 2.47.6 3.46.99 1.77 1.78 2.33 1.77.84 2.93.84Zm14.34 3.55v-20.08h3.91v20.08h-3.91Zm1.98-23.18c-.68 0-1.26-.23-1.75-.68-.46-.42-.72-1.02-.72-1.65s.24-1.19.72-1.65c.49-.46 1.07-.69 1.75-.69s1.26.23 1.74.69c.49.45.73 1 .73 1.65s-.24 1.18-.73 1.65c-.48.45-1.06.68-1.74.68Zm-143.2-22.73h66.08v66.08H33.53v-66.08Z" style="fill:#01b075"/><path d="M73.19 130.1c-1.33-.26-2.73-.36-4.08-.4-4.19-.12-8.4-.08-12.6-.04-2.14.02-4.29.04-6.43.04-1.93 0-2.87.52-2.88 1.85-.03 12.81-.03 25.59 0 38.37.03.06.05.12.07.18.02.07.04.13.07.19.25.44.5.85.98 1.12.45.25.92.43 1.41.44 4.24.08 8.5.07 12.74 0h2.48c1.59.02 3.19.05 4.78-.12 2.74-.28 5.61-.71 8.07-2.06 1.62-.89 3.14-1.81 4.55-3.01 2.54-2.15 4.72-5.14 5.69-8.36.1-.32.21-.63.32-.94.11-.3.22-.61.31-.92.1-.34.17-.69.23-1.04l.03-.19.04-.23c.08-.44.17-.87.21-1.31.07-.63.12-1.26.13-1.89v-.33c.02-1.07.03-2.15-.12-3.21-.19-1.32-.45-2.64-.78-3.93-.25-.98-.63-1.84-1.03-2.78-.39-.88-.85-1.72-1.39-2.51-.37-.55-.76-1.09-1.16-1.61l-.05-.07c-.26-.36-.54-.71-.85-1.03a54.53 54.53 0 0 0-2.08-1.95c-.3-.26-.61-.5-.94-.73-.43-.31-.88-.6-1.32-.89-1.06-.69-2.16-1.17-3.33-1.64l-.05-.02c-.98-.39-2-.8-3.03-1Zm6.05 5.29c.79.57 1.57 1.16 2.27 1.84.15.16.29.32.44.47.33.35.65.7.94 1.07l.08.11c.57.75 1.14 1.5 1.57 2.34l.07.13c.52 1.02 1 1.98 1.35 3.08.17.51.29 1.03.41 1.55.08.34.17.68.26 1.02.19.67.22 1.35.26 2.05.03.56.06 1.13.18 1.69-1.27-.17-2.56-.26-3.84-.28-.87-.02-1.73-.02-2.6 0-.6 0-1.2.06-1.79.13-.52.06-1.04.15-1.55.26-1.68.37-3.38.77-4.98 1.44-.78.33-1.54.7-2.31 1.07l-.66.32c-1.05.5-1.98 1.07-2.93 1.73-1.19.82-2.23 1.75-3.29 2.69-.33.29-.66.59-.99.88l-.02-.1c0-.05-.02-.11-.02-.17v-4.47c0-.44.93-.68 1.64-.85.22-.05.45-.12.66-.2l.29-.13c.63-.28 1.25-.56 1.8-.98 1.86-1.44 3.24-3.77 3.64-6.09.08-.52.13-1.04.13-1.57 0-.12-.16-.33-.26-.34-.85-.09-1.57.08-2.39.28-.86.21-1.61.49-2.41.87-.44.21-.83.49-1.23.77l-.08.05c-.68.48-1.22 1.08-1.72 1.74-1.15 1.52-1.99 3.6-2.02 5.51-.02 1.53-.02 3.06 0 4.6v2.06c-.5-.15-.99-.31-1.48-.48l-.19-.07c-2.4-.81-4.67-.95-7.17-.9-.28 0-.56.03-.84.06-.31.03-.63.06-.94.06v-26.59h20.76c1.03 0 2.21.34 3.21.62l.06.02c.89.25 1.8.51 2.63.94l.4.2c.43.22.87.44 1.29.68.46.27.91.57 1.35.88h.03Zm-6.87 19.38c2.71-1.24 5.75-1.75 8.69-1.98h2.92c.61 0 1.22.07 1.82.13.23.02.46.07.7.12l.35.07-.06.42c-.13.83-.26 1.68-.54 2.51-.22.65-.43 1.31-.65 1.99l-.3.92-.33-.06c-.26-.04-.51-.08-.75-.12-2.53-.38-5.32-.1-7.76.65-3.76 1.15-6.65 3.22-9.4 5.98-1.05 1.05-1.82 2.49-2.52 3.8a.41.41 0 0 1-.29.19h-6.07c.03-.09.06-.19.09-.28.06-.19.12-.38.2-.55.24-.53.49-1.06.76-1.57.2-.39.42-.77.65-1.15l.19-.33c.49-.85 1-1.67 1.64-2.41.97-1.14 1.97-2.26 2.99-3.36.3-.33.67-.61 1.02-.89.32-.25.65-.49.99-.72l.42-.3.4-.3c.3-.22.61-.45.93-.65.55-.35 1.11-.66 1.68-.97.73-.4 1.48-.78 2.24-1.13h-.01Zm11.55 6.43c-.82 1.33-1.79 2.43-2.88 3.44-.33.32-.67.62-1.03.9-.75.56-1.56 1.09-2.35 1.59-.69.43-1.49.78-2.24 1.08-1.47.58-3.41 1.2-5.01 1.2-.34 0-.68 0-1.02.02-.76.02-1.53.04-2.27-.04 1.74-2.4 3.54-4.51 6.15-6.03.53-.31 1.08-.57 1.65-.81.3-.12.61-.23.93-.33.32-.11.63-.21.94-.34 1.94-.81 5.07-1.16 7.13-.66v-.02Zm-34.41 8.2v-8.2c3.43-.75 6.69-.24 9.83 1.06l-.25.41c-.17.29-.34.57-.52.84-.52.79-1 1.54-1.42 2.39-.27.54-.5 1.1-.72 1.66-.23.57-.47 1.14-.74 1.69-.04.08-.18.16-.27.16H49.5h.01Zm10.92-23.12c.17.22.7.23.87 0 2.77-3.8 3.04-7.99.23-11.75-.39-.53-.82-.65-1.3-.03-2.88 3.7-2.67 8.21.2 11.79Zm22.25-2.78c.04.11.1.21.15.32.16.33.33.66.29 1.06-.1.91-1.56 1.53-2.11.66l-.06-.09c-2.91-4.87-3.77-6.32-8.74-7.84-.63-.19-5.53-1.81-2.81-2.94.87-.5 3.51.54 4.6 1.03 3.55 1.6 7.12 4.08 8.68 7.8Zm-23.73 4.73c-.62-2.45-2.79-4.71-5.44-4.78-4.77-.13 5.78 9.22 5.59 6.08v-.1c-.03-.4-.05-.81-.15-1.2Zm8.78 12.02c0 .57-.46 1.04-1.04 1.04s-1.04-.46-1.04-1.04.46-1.04 1.04-1.04 1.04.46 1.04 1.04ZM82 156.1c.57 0 1.04-.46 1.04-1.04s-.46-1.04-1.04-1.04-1.04.46-1.04 1.04.46 1.04 1.04 1.04Zm-5.32-1.17a.781.781 0 0 1-1.56 0 .781.781 0 0 1 1.56 0Zm-1.16 10.25c.57 0 1.04-.46 1.04-1.04s-.46-1.04-1.04-1.04-1.04.46-1.04 1.04.46 1.04 1.04 1.04Zm-10.77 1.3a.781.781 0 0 1-1.56 0 .781.781 0 0 1 1.56 0Zm-12.32-1.56a.781.781 0 0 0 0-1.56.781.781 0 0 0 0 1.56Z" style="fill:#fff;fill-rule:evenodd"/></svg>