<svg xmlns="http://www.w3.org/2000/svg" id="Layer_1" data-name="Layer 1" viewBox="0 0 475 356"><defs><style>.cls-1{fill:none;stroke:#000;stroke-miterlimit:10}</style></defs><path d="M0 312.64c41.05 3.88 82.7-1.73 122.18-13.62 13.74-4.14 27.67-9.28 38.19-19.03 4.95-4.59 9.16-10.45 9.97-17.16.96-8-4.15-17.12-13.05-17.04-4.66.05-8.88 3.19-9.75 7.77-1.11 5.78 3.46 10.21 8.38 12.28 11.82 4.97 27.15-1.8 31.43-13.88 4.28-12.09-3.37-27-15.68-30.57-5.76 1.85-4.13 11.66 1.54 13.77s11.93-1.07 16.63-4.89c4.16-3.39 7.87-7.4 12.55-10.02 5.73-3.21 13.61-3.95 18.01 1.93 2.51 3.35 2.01 8.23-1.42 10.63-6.52 4.57-13.6-4.12-16.14-11.38-1.38-3.93-2.58-8.48-.48-12.08 2.4-4.11 8.01-5.08 11.24-8.58 5.01-5.44 1.89-15-4.38-18.93-5.85-3.67-13.17-3.71-20.08-2.96a.853.853 0 0 1-.88-1.19c3.86-8.85 6.6-18.19 8.14-27.72.06-.37-.2-.73-.57-.79a51.137 51.137 0 0 0-27.05 3.15.65.65 0 0 1-.87-.8l18.22-56.49c.94-2.54 4.94-2.43 6.73-.4 1.79 2.03 1.97 4.97 2.06 7.68l.93 27.36c.04 1.17 1.72 1.33 1.98.19 4.37-19.44 3.07-39.9 4.41-59.9 1.48-22.29 7.37-46.16 24.72-60.23 1.33-1.08 3.2-2.79 4.6-1.94 1.64 1.01 2.86 1.83 4.19 3.14 9.22 9.05 16.01 20.29 24.02 30.43-9.04 7.24-21.25 10.36-32.66 8.36-3.92-.69-7.9-1.95-11.78-.09-2.05.98-3.45 3.07-3.26 5.33.46 5.61 9.88 4.81 12.53-.13 2.65-4.93 1.55-10.99 2.81-16.45 1.26-5.45 7.71-10.7 12.05-7.17 7.76 6.3-9.94 19.58-3.59 27.29 4.79 5.82 17.06-.88 19.75 8.29.21.7.31 1.43.36 2.17l4.46 57.07c.47 5.96 1.01 12.18 4.12 17.28 3.11 5.11 9.5 4.56 15.18 6.43 32.53 10.67 16.19 12.6 4.9-25.09-1.77-5.93-3.53-11.86-5.3-17.79-2.1-7.07-5.73-15.48-13.43-15.57-3.41-.04-6.55 1.74-8.65 4.42-4.15 5.29-4.3 11.92-4.39 18.28-.11 7.59-.21 15.17-.32 22.76-.04 3-.13 6.16-1.65 8.74-2.65 4.5-8.55 5.65-13.74 6.18-11.91 1.23-23.91 1.6-35.87 1.1-1.75-.07-3.43-.89-4.42-2.32-1.89-2.74.08-5.42 2.19-7.16 7.9-6.52 18.99-7.04 29.23-7.27 7.2-.16 15.01-.13 20.76 4.2 9.95 7.5 8.43 23.33 15.9 33.21.43.57.25 1.38-.34 1.76-8.85 5.63-22.17 2.91-27.87-5.99-2.94-4.59-1.3-12.81 3.18-13.41 1.22-.16 2.28.88 2.21 2.12-.23 4.4-6.52 7.5-9.68 11.48-4.99 6.29-1.75 15.6 2.52 22.39 8 12.72 23.13 24.57 37.16 16.57 3.28-1.87 5.08-5.72 3.96-9.32-1.53-4.89-7.01-4.29-10.14-5.31-5.42-1.77-11.37.66-13.34 6.01-3.01 8.19 4.77 11.26 8.51 16.53 6.09 8.59-3.07 22.72-13.4 20.66.19-6.81 5.05-13.23 11.54-15.28s14.16.44 18.21 5.91c2.86 3.86 3.92 8.78 6.52 12.81 4.66 7.22 15.02 10.55 22.53 6.36 8.83-4.93 10.37-20.33-.51-24.47-6.58-2.5-13.74.64-15.48 7.47-2.06 8.05 5.57 15.07 13.38 16.67 7.35 1.51 14.93-.28 22.41-.86 4.7-.36 8.28-.73 12.4-.37 8.73.77 12.42 1.65 15.16 3.86 1.23.99 3.48 2.86 3.63 5.57.05.88-.08 2.59-3.04 6.11-3.92 4.65-8.22 6.96-8.63 7.25-6.07 4.2-13.87 7.37-20.71 3.33-4.03-2.38-5.92-7.41-3.85-11.61 3.38-6.86 13.43-3.62 15.12 2.76 1.49 5.64-2.38 11.69-7.63 14.24-5.25 2.55-11.45 2.27-17.15 1.04-18.31-3.95-33.41-16.58-50.62-24-4.62-1.99-9.68-3.64-14.64-2.43-3.62.88-6.74 3.43-7.71 7.03-2.19 8.15 9.74 12.57 15.08 7.27 4.92-4.88 3.31-13.98-2.14-18.25-5.45-4.28-13.3-4.35-19.79-1.92-7.54 2.83-14.58 10.49-10.34 18.76 1.15 2.24 3.02 4.05 5.2 5.31 6.15 3.57 13.13 3.19 19.91 3.46 7.44.3 15.07 1.51 21.41 5.41s11.15 10.95 10.65 18.38-7.53 14.3-14.88 13.13c-1.16-.18-2.3-.56-3.25-1.25-3.46-2.53-2.75-8.11-.15-11.52 4.74-6.23 13.65-7.91 21.33-6.42 7.68 1.49 14.57 5.55 21.59 9.01 13.01 6.42 54.31 13.67 171.72 3.59" class="cls-1"/><path d="M253.79 45.33c.3 7.11.87 14.2 1.72 21.26m-69.14 27.94c-.54-3.08.17-6.25 1.08-9.24 3.62-11.84 10.32-22.31 16.93-32.6m55.44-11.28c2.32 2.6 1.64 6.63 2.31 10.04.39 1.98 1.15 3.86 1.8 5.77 4.01 11.62 4.49 25.3 8.71 36.85m-17.51 53.42c6.99-2.83 10.85-.06 14.62-.18M216.5 49.2l-5.56-.78c-.61-.09-1.22-.17-1.83-.31-1.18-.27-2.34-.75-3.48-1.23m24.51 132.92c1.4-1.61 2.01-2.16 3.54-2.66s2.84-.89 5.2-.67c1.31.12 4.9-.02 6.1-.27m-181.1-1.15a157.28 157.28 0 0 1-1.23-33.45" class="cls-1"/><path d="M62.57 162.39c2.13-9.04 8.01-16.55 15.78-21.63 3.02-1.97 6.3-3.49 9.58-5 2.16-1 4.32-1.99 6.47-2.99" class="cls-1"/><path d="M63.07 168.48c4.25 1.25 9.63-1.47 13.15-4.15 5.05-3.85 10.02-7.97 13.63-13.19 3.62-5.22 6.73-13.45 4.25-18.67" class="cls-1"/><path d="M62.98 167.54c2.36-4.1 5.24-7.72 8.3-10.93 1.79-1.87 3.95-3.75 6.54-3.75m-14.99 8.97c-3.81.88-7.74 1.51-11.62 1.02-3.88-.49-7.73-2.23-10.07-5.36-.93-1.24-1.59-2.65-2.25-4.05-2.57-5.46-5.58-10.86-8.14-16.31" class="cls-1"/><path d="M30.53 137.55c4.24-2.13 13.19-.05 17.57 3.16a87.78 87.78 0 0 1 10.39 8.96c1.74 1.76 3.05 4.96 3.73 5.71m.51 5.4a28.123 28.123 0 0 0-13.98-9.83m13.38-9.62c-1.46-.19-2.95-.39-4.32-.93s-2.65-1.48-3.3-2.8c-.32-.66-.48-1.39-.62-2.1-.04-.18-.07-.37-.01-.54.09-.28.4-.43.68-.54 2.97-1.1 6.26-.74 9.42-.91 3.32-.18 6.61-.98 9.92-.72.4.03.85.1 1.08.43.14.19.17.44.2.68.12.97.22 2.04-.35 2.83-.22.3-.52.54-.82.76-3.28 2.4-8.38 4.33-12.1 3.82" class="cls-1"/><path d="M53.97 134.65c-1.97-.8-3.66-2.29-4.69-4.15s-1.41-4.08-1.04-6.18c.02-.13.05-.26.13-.37.16-.22.46-.24.73-.24 2.09 0 4.13.53 6.19.87 5.39.9 11 .51 16.22-1.11 1.15-.36 2.33-.78 3.52-.63 1.86.24 3.38 2.06 3.27 3.94-.06 1.08-.58 2.07-1.13 3.01-.53.91-1.56 2.28-2.16 3.15" class="cls-1"/><path d="M49.2 123.72c-1.89-2-3.47-5.25-3.48-8 0-.59.06-1.22.4-1.7.47-.64 1.33-.85 2.12-.97 4.69-.7 9.47 0 14.21-.17 4.34-.17 8.63-1.08 12.97-1.23 1.5-.05 3.06 0 4.39.7.35.18.7.42.9.76.42.71.13 1.62-.21 2.37-1.13 2.54-2.93 5.23-4.75 7.34" class="cls-1"/><path d="M46.7 113.44c1.23-2.24.83-6.23-.89-8.37-1.72-2.14-4.15-3.61-5.92-5.71-1.46-1.73-2.41-3.81-3.34-5.87-.8-1.77-1.61-3.55-2.22-5.39-2.49-7.48-1.69-15.73.65-23.27.48-1.56 1.04-3.12 1.98-4.46.98-1.4 2.32-2.49 3.68-3.52 1.63-1.24 3.31-2.43 5.09-3.43 8.6-4.87 19.25-5.26 28.75-2.56 2.42.69 4.82 1.58 6.91 2.98 3.47 2.32 5.89 5.86 8.22 9.31 1.03 1.53 2.08 3.08 2.7 4.82.74 2.06.87 4.28.95 6.47.12 3.02.17 6.09-.61 9.01-.65 2.43-1.86 4.66-3.06 6.87-2.64 4.86-5.29 9.75-8.76 14.05-1.67 2.07-3.59 4.49-4.17 7.08" class="cls-1"/><path d="M62.15 112.83c.31-3.82.61-7.64.92-11.47.14-1.8.29-3.61.43-5.41.35-4.33.7-8.7 2.05-12.83 1.34-4.13 3.78-8.05 7.47-10.34.92-.57 1.93-1.04 3-1.13s2.23.26 2.92 1.09c.52.63.73 1.45.82 2.26.41 3.76-1.48 7.34-3.32 10.64-1.01 1.82-2.04 3.66-3.53 5.11-2.52 2.47-6.13 3.56-9.66 3.76-1.09.06-2.2.04-3.23-.31-1.13-.39-2.08-1.16-2.91-2.01-4.15-4.21-5.76-10.35-5.97-16.25-.04-1.18-.03-2.41.48-3.48s1.65-1.92 2.82-1.74c.73.11 1.34.59 1.89 1.08 4.39 3.87 7.61 9.4 8.22 15.22m-14 179.99c-.05-5.46.4-11.28.59-16.91.05-1.38.08-2.81-.48-4.07-.51-1.15-1.47-2.03-2.34-2.94-4.88-5.04-7.91-11.69-9.24-18.57-1.33-6.89-1.02-14.01.16-20.92.67-3.93 1.63-7.84 3.36-11.44 3.62-7.54 10.52-13.25 18.31-16.3s16.42-3.57 24.71-2.44" class="cls-1"/><path d="M92.5 205.57c-1.58-4.7-.47-2.27-2.91-6.3s-7-6.27-11.19-8.4c-3.53-1.79-7.18-3.42-10.97-4.5-.64-.18-.63-1.11.03-1.23 5.75-1.07 11.17-3.93 15.25-8.13s6.84-9.82 7.72-15.66c.1-.68 1.04-.77 1.24-.1.99 3.25 2.14 6.45 3.86 9.36 3.98 6.72 11.1 11.44 18.78 12.7a.63.63 0 0 1 .09 1.23c-6.6 2.05-12.29 6.86-17.18 11.91-2.5 2.58-5.05 5.73-4.69 9.31" class="cls-1"/><path d="M109.34 186.93a90.374 90.374 0 0 1 10.01 32.44c.29 2.67.51 5.48 1.97 7.73.59.91 1.36 1.7 1.84 2.67 1.18 2.39.07 5.63-2.31 6.8-1.79.88-4.18.78-5.37 2.37-.51.67-.69 1.53-.86 2.35-.86 4.08-1.88 8.13-3.08 12.13-.49 1.63-1.05 3.33-2.31 4.46-1.35 1.22-3.25 1.57-5.05 1.83-4.99.73-10.01 1.2-15.05 1.39-1.37.05-2.84.06-4-.67-2.76-1.74-2.18-6.41-3.55-9.37m-.02-.12a81.1 81.1 0 0 1-.43 14.28c-.04.34-.1.72-.36.94-.26.22-.63.23-.97.23-9.79-.06-19.81.31-29.61.25m8.83-70.68c-.37-1.72-1.22 5.19-3.07 7.02-1.86 1.84-9.92 4.21-6.73 3.9 1.01-.09 2.05-.18 3.02.13.6.19 1.15.53 1.67.89 1.34.91 2.59 1.98 3.54 3.29 1.21 1.68 1.89 3.68 2.55 5.64.24 1.24-.24-2.98.47-4.27.66-1.2 1.74-2.11 2.92-2.8 1.54-.89 3.29-1.42 5.06-1.54 1.03-.03-3.71-.49-5.27-1.48s-2.8-2.53-3.29-4.31c-.18-.65-.26-1.32-.34-1.99-.19-1.55-.37-3.09-.56-4.64M331.2 95.5c4.3-17.2 14.44-32.49 26.65-45.34 2.05-2.15 4.16-4.26 6.55-6.04 4.16-3.1 9.02-5.13 13.81-7.12 9.65-4 19.74-8.08 30.16-7.32 1.38.1 2.84.32 3.91 1.2 1.35 1.1 1.77 2.96 2.04 4.68 1.95 12.21.67 24.68-.6 36.97-.13 1.23-.27 2.5-.93 3.55-.67 1.07-1.81 1.76-2.95 2.32-5.41 2.66-11.89 3.21-16.61 6.96-2.79 2.22-4.69 5.35-6.34 8.51-.25.48-.52.99-.98 1.29-.44.28-.99.32-1.51.35-17.57 1.01-43.4 3.01-53.79.2" class="cls-1"/><path d="M343.26 96.66c.84-4.05 2.64-9.5 4.43-13.22 5.06-10.54 13.6-19.02 22.68-26.39 1.88-1.53 3.8-3.02 5.91-4.21 2.16-1.22 4.49-2.1 6.81-2.97 4.29-1.62 8.59-3.24 12.88-4.85 5.88-2.22 12.69-4.53 18.98-4.53" class="cls-1"/><path d="M355.19 96.78c.9-5.84 5.22-11.8 9.24-16.13 4.66-5.01 9.53-9.81 14.6-14.4 1.27-1.15 2.55-2.28 3.91-3.31 5.17-3.9 11.37-6.16 17.46-8.36 4.52-1.64 10.02-3.35 14.81-3.78m-45.97 45.58c1.63-2.18 4.18-5.66 5.81-7.85 1.64-2.2 3.3-4.41 5.35-6.24 1.24-1.1 2.61-2.04 3.99-2.97 9.19-6.13 19.57-11.6 30.07-15.02m-20.39 75.85c-3.83 15.31-12.86 28.92-23.73 40.36-1.82 1.92-3.71 3.79-5.83 5.37-3.71 2.76-8.03 4.56-12.3 6.33-8.59 3.56-17.58 7.19-26.85 6.51-1.23-.09-2.53-.29-3.48-1.07-1.2-.98-1.58-2.63-1.82-4.16-1.73-10.87-.6-21.97.54-32.91.11-1.09.24-2.23.83-3.16.6-.95 1.61-1.57 2.62-2.07 4.82-2.36 10.58-2.85 14.78-6.2 2.48-1.97 4.17-4.77 5.64-7.58.23-.43.47-.88.88-1.15.39-.25.88-.28 1.34-.31 15.64-.89 38.69-2.67 47.94-.17" class="cls-1"/><path d="M383.34 139.11c-.75 3.6-2.35 8.46-3.94 11.77-4.51 9.38-12.1 16.93-20.19 23.49-1.67 1.36-3.38 2.69-5.26 3.75-1.92 1.08-4 1.87-6.07 2.64-3.82 1.44-7.65 2.88-11.47 4.32-5.24 1.97-11.31 3.95-16.9 3.95" class="cls-1"/><path d="M372.67 139.28c-.8 5.2-4.6 10.22-8.19 14.08a209.61 209.61 0 0 1-13 12.82c-1.13 1.02-2.27 2.03-3.48 2.95-4.6 3.47-10.12 5.48-15.54 7.45-4.02 1.46-9.02 2.95-13.28 3.34m41.04-40.56c-1.45 1.94-3.72 5.04-5.17 6.99-1.46 1.96-2.94 3.93-4.77 5.55-1.11.98-2.33 1.82-3.56 2.64-8.18 5.46-17.59 10.56-26.93 13.61m-239.02 98.2c.92 5.55 4.86 10.17 9.64 13.14s10.34 4.42 15.88 5.46c5.53 1.04 11.15 1.71 16.55 3.32 4.7 1.4 9 3.39 13.08 6.12m-85.31-27.94c-.3 1.26-1.34 2.27-2.55 2.73s-2.57.42-3.82.08a8.496 8.496 0 0 1-5.05-3.87c-1.38-2.36-1.55-5.29-2.93-7.65-1.46-2.51-4.3-4.17-7.2-4.2-.52 0-1.05.04-1.53.25-.36.16-.67.41-.96.67-.93.84-1.67 1.88-2.17 3.03-.81 1.86-.99 3.99-2.09 5.69-1.14 1.75-3.09 2.79-4.55 4.28a9.763 9.763 0 0 0-2.74 5.99c-.04.49-.04 1.02.21 1.45.4.7 1.28.92 2.08 1.03 1.13.15 2.35.18 3.35-.37.97-.52 1.61-1.53 1.89-2.59s.22-2.19.05-3.27c-.62-3.87-2.65-7.38-3.51-11.21-.34-1.52-.49-3.08-.5-4.63 0-.73.03-1.47.26-2.16.31-.91.95-1.68 1.74-2.23 1.91-1.33 4.42-1.32 6.75-1.26 1.66.04 3.34.09 4.96.48 2.88.69 5.41 2.43 7.66 4.36.76.65 1.5 1.33 2.12 2.11.74.93 1.3 1.99 1.92 3 1.8 2.91 4.16 5.42 6.5 7.92m244.27-42.61c.43-3.98 2.86-7.35 5.7-10.18 2.84-2.83 6.16-5.11 9.13-7.8 4.3-3.88 7.6-8.38 10.13-13.59m26.98-52.06c1.3-3.07 2.26-6.28 2.84-9.57.26-1.48.45-2.99.33-4.49-.45-5.36-4.68-9.48-8.24-13.51-4.24-4.81-12.34-10.95-10.55-16.3M87.63 60.59c.69-2.6.85-2.84 2.51-4.97.55-.7 1.14-1.37 1.82-1.95.5-.42 1.04-.8 1.6-1.15 3.72-2.34 8.08-3.63 12.47-3.69m26.19 22.32c-.59 2.44-.88 5.83-1.45 8.25-1.35 5.7-.53 11.76 1.48 17.27.73 2.02 1.66 4.04 3.22 5.53 2.08 1.99 5 2.78 7.81 3.43 2.77.63 5.82 1.16 8.35-.14 2.74-1.41 4.05-4.53 5.1-7.43 1.41-3.92 2.74-7.96 2.73-12.12s-1.55-8.53-4.91-10.99c-.96-.7-2.07-1.24-3.26-1.34-1.41-.11-2.78.41-4.07.98-1.49.66-2.96 1.4-4.26 2.4-3.57 2.74-5.56 7.5-4.76 11.93.8 4.43 4.49 8.26 8.93 8.99 1 .17 2.05.18 3.02-.13.95-.3 1.79-.91 2.48-1.63 1.71-1.78 2.55-4.32 2.42-6.79s-1.19-4.85-2.82-6.71c-.91-1.05-2.08-1.97-3.46-2.15-2.16-.29-4.11 1.31-5.41 3.06-.7.94-1.31 2.01-1.39 3.18-.1 1.43.65 2.84 1.74 3.77 1.59 1.36 4.13 1.74 5.77.44s1.61-4.34-.27-5.25c-.34-.16-.73-.25-1.1-.18-.4.08-.74.35-1.03.64-2.54 2.48-2.73 6.49-2.3 10.02.25 2.04.66 4.05 1.09 6.05.94 4.35 2.05 8.73 4.25 12.59 4.07 7.15 11.95 11.99 20.17 12.37 1.22.06 2.47.02 3.61-.41s2.46-1.37 2.81-2.54M386.18 95.1c-.1 1.06.28 2.4.79 3.34 1.41 2.6 3.98 4.4 6.71 5.57s5.64 1.78 8.49 2.59c1.96.56 3.93 1.24 5.6 2.41 1.6 1.12 2.87 2.66 3.95 4.29.63.96 1.22 1.98 1.43 3.1.37 2.05-.73 4.31-2.64 5.15s-4.42.02-5.35-1.84c-.48-.95-.55-2.05-.54-3.12 0-1.76.3-3.72 1.68-4.82.8-.64 2.2-.88 3.21-1.1m1.69 10.79c-1.05.58-1.24 2.11-1.32 3.31-.1 1.6.13 3.26.91 4.66s2.18 2.51 3.78 2.7c1.3.16 2.77-.41 3.28-1.61.18-.42.24-.89.26-1.35.1-2.4-.8-4.82-2.44-6.57-.49-.53-1.07-1.01-1.75-1.25s-2.23-.25-2.82.16" class="cls-1"/><path d="M415.11 132.25c-1.09.75-1.21 2.33-1.07 3.65s.8 2.53 1.56 3.62c.61.88 1.32 1.72 2.21 2.31s2 .92 3.06.71c1.07-.22 1.98-.98 2.53-1.92s.77-2.05.78-3.14c0-.66-.06-1.34-.32-1.95-.24-.55-.62-1.03-1.03-1.47-.74-.82-1.58-1.57-2.57-2.08s-2.01-.84-3.09-.6" class="cls-1"/><path d="M416.89 141.07c1.59 2.37 3.23 5.01 3.54 7.84.4 3.6-1.4 7.33-.34 10.79 1.08 3.53 4.77 5.62 6.47 8.9 1.22 2.34 1.33 5.07 1.62 7.68.91 8.13 3.88 16.03 8.56 22.74" class="cls-1"/><path d="M423.36 141.57c.26 0 .51-.23.5-.5s-.22-.5-.5-.5c-.26 0-.51.23-.5.5s.22.5.5.5Z"/><path d="M423.42 140.91c4.1 3.03 6.66 8.05 6.7 13.15.03 3.82-1.22 7.83.3 11.33 1.34 3.08 4.46 4.9 6.93 7.18 3.22 2.96 5.48 6.95 6.37 11.24.53 2.53.58 5.15 1.14 7.68 1.7 7.73 7.76 13.62 13.54 19.03m-34.5-74.89c4.94 2.11 9.45 7 10.53 12.26.31 1.54.43 3.18 1.22 4.54 1.42 2.42 4.46 3.2 6.98 4.45 4.05 2.01 7.2 5.75 8.48 10.08 1.01 3.4 1 7.28 3.24 10.02 1.15 1.4 2.77 2.33 4.09 3.58 2.47 2.32 3.9 5.73 6.79 7.49" class="cls-1"/><path d="M230.12 180.04c.26 0 .51-.23.5-.5s-.22-.5-.5-.5c-.26 0-.51.23-.5.5s.22.5.5.5Zm-18.72-26.29c.26 0 .51-.23.5-.5s-.22-.5-.5-.5c-.26 0-.51.23-.5.5s.22.5.5.5Z"/><path d="M215.93 192.04c-.27-3.36.63-6.63 3.02-9 1.37-1.36 3.17-2.23 5.02-2.77s3.79-.77 5.7-.99M130.99 21.44c-1.13-.03.61 11.21-6.17 19.06-2.92 3.38-8.22 7.05-14.44 7.96-2.82.41-5.57.22-5.58.43-.02.41 10.46-1.47 18.36 4.1 4.73 3.34 9.6 10.1 9.16 16-.05.64-.22 2.09 0 2.14.45.1 1.01-6.05 3.89-10.59 5.98-9.43 20.76-9.92 20.44-11.68-.1-.58-1.74-.69-2.92-.83-8.72-1.09-16.13-7.37-19.19-12.1-4.37-6.74-2.59-14.47-3.54-14.5Z" class="cls-1"/><path d="M108.58 32.98c-.34 0 .18 3.38-1.86 5.75-.88 1.02-2.48 2.13-4.36 2.4-.85.12-1.68.07-1.68.13 0 .13 3.16-.44 5.54 1.24 1.43 1.01 2.9 3.05 2.77 4.83-.01.19-.07.63 0 .65.14.03.3-1.83 1.17-3.2 1.81-2.85 6.27-2.99 6.17-3.53-.03-.18-.53-.21-.88-.25-2.63-.33-4.87-2.22-5.79-3.65-1.32-2.03-.78-4.37-1.07-4.38Z" class="cls-1"/></svg>