<svg xmlns="http://www.w3.org/2000/svg" id="Layer_1" data-name="Layer 1" viewBox="0 0 475 356"><defs><style>.cls-1,.cls-2{fill:none;stroke:#000}.cls-1{stroke-miterlimit:10}.cls-2{stroke-linecap:round;stroke-linejoin:round}</style></defs><path d="M391.74 84.97c-3.32-1.09-6.95-1.61-9.85-3.55-.65-.43-1.31-.95-2.09-.98m0 0c-1.34-1.98-.89-4.82-1.06-7.21-.67-9.11.28-18.34 2.79-27.12.84-2.95 1.85-6.51 3.78-8.89" class="cls-1"/><path d="M387.73 83.72c-.83-7.99 2.01-16.65 5.32-23.97 3.31-7.32 7.18-14.54 8.58-22.45m-10.01 47.83c5.61-4.62 11.32-10.56 15.77-16.3 4.27-5.52 8.63-11.72 9.75-18.61" class="cls-1"/><path d="m91.95 145.5 1.5 14.56c.67 6.53 1.35 13.14.31 19.62-.61 3.84-1.82 7.58-2.11 11.45-.5 6.58 1.67 13.03 2.92 19.51 2.94 15.32.76 31.08.04 46.66-.97 20.97.75 41.97 2.47 62.89.32 3.92.64 7.84.97 11.76" class="cls-2"/><path d="M75.75 153.12c-.51 59.74-1.02 119.49-1.52 179.23 32.22-.24 64.43-.6 96.65-1.08 1.98-26.53 3.95-53.19 1.78-79.71-.82-9.99-2.23-19.94-2.44-29.96-.25-11.66 1.1-23.29 1.86-34.93 1.82-27.85.23-55.8-1.75-83.63-.09-1.3-.16-2.7.56-3.79.64-.96 1.75-1.46 2.81-1.9 15.72-6.68 31.54-13.15 47.44-19.39 3.7-1.45 7.49-2.91 11.46-3.02 4.02-.11 7.93 1.17 11.75 2.43 17.82 5.9 35.63 11.8 53.45 17.7 1.42.47 2.92 1 3.84 2.17 1.24 1.57 1.07 3.78.94 5.77-.87 12.82 2.01 25.54 3.64 38.29 2.82 22.16 1.84 44.6.85 66.91l-5.46 123.26" class="cls-2"/><path d="M301.59 331.47c15.96.47 30.88-.06 46.84.41.72.02 1.55 0 2.01-.56.37-.44.37-1.08.35-1.66-.18-5.21-.37-10.42-.55-15.64-.8-22.87-1.61-45.76-.93-68.63.62-20.94 2.47-42.12-1.58-62.67" class="cls-2"/><path d="M347.73 182.72a698.24 698.24 0 0 0-34.16-11.74c-3.87-1.22-7.81-2.42-11.87-2.48-4.12-.06-8.15 1.05-12.12 2.15-12.52 3.47-25.05 6.94-37.57 10.42-1.66.46-3.45 1.01-4.46 2.4-.82 1.12-.97 2.58-1.08 3.97-4.11 48.33-4.18 97-.22 145.33-11.52.52-23.04 1.04-34.57 1.57-1.62.07-3.42.08-4.62-1-1.14-1.03-1.35-2.7-1.5-4.23a759.212 759.212 0 0 1-2.25-110.2c1.05-20.15 2.91-40.41.49-60.44-.29-2.4-.69-4.92-2.16-6.84-1.43-1.88-3.68-2.93-5.86-3.85-15.28-6.48-31.53-10.32-47.69-14.13-4.95-1.17-9.97-2.34-15.05-2.2-5.17.15-10.2 1.67-15.11 3.31a265.311 265.311 0 0 0-42.18 18.37" class="cls-2"/><path d="M368.3 97.54c.38 1.62 4.74-.85 6.81-.17" class="cls-1"/><path d="M374.98 97.34c.87.19 1.55.91 1.91 1.73s.46 1.72.55 2.6c.14 1.35.26 2.81-.44 3.96-.58.96-1.63 1.53-2.67 1.96-1.92.8-4.16 1.26-6.08.53-.21-.08-.42.07-.39.29.45 3.62.5 7.28.15 10.91-3.14.78-6.39 1.13-9.62 1.03-.21 0-.44-.02-.59-.16-.13-.13-.18-.32-.19-.5-.08-.89.3-1.76.38-2.65.14-1.6-.71-3.19-1.98-4.17-1.49-1.16-3.48-1.56-5.34-1.51-1.07.03-2.15.28-3.02.91-2.26 1.63-1.61 4.28-1.66 6.64 0 .25-.02.51-.16.72-.27.43-.86.48-1.37.47-3.84-.04-7.67-.27-11.48-.69-.22-.02-.46-.06-.62-.21-.18-.17-.22-.45-.24-.7-.33-3.82-.67-7.65-1-11.47-.21-2.39-.42-4.77-.58-7.16-.2-2.82-.33-5.7.43-8.43.51-1.85 1.54-3.71 3.29-4.49.32-.14.65-.25.99-.33 1.64-.39 3.32-.55 5.01-.63 8.9-.43 17.82-.63 26.73-.62.29 0 .6 0 .86.15.57.32.6 1.12.54 1.78-.31 3.42-.9 6.91-.09 10.25" class="cls-1"/><path d="M332.45 118.97c-.55 9.02-.51 18.08.14 27.1.11 1.56.25 3.16.93 4.58.95 1.98 2.88 3.37 4.96 4.1s4.31.89 6.5.97c7.59.27 15.17-.28 22.75-.84.36-.03.77-.09.93-.41.1-.21.05-.47 0-.7-.89-3.66-1.28-7.45-1.16-11.22 0-.24-.24-.4-.45-.29-1.67.84-3.56 1.58-5.26.87-1.16-.48-1.97-1.56-2.52-2.69-.39-.8-.67-1.66-.77-2.55-.25-2.29.92-4.68 2.87-5.9 1.8-1.13 4.2-1.21 6.09-.26.21.1.44-.04.42-.27-.34-4.03-.25-8.1.28-12.12" class="cls-1"/><path d="M368.15 119.33c9.37-.67 18.95-1.33 28.02 1.13 1.52.41 3.05.93 4.24 1.95 1.25 1.07 2.01 2.6 2.68 4.11 1.75 3.95 3.14 8.19 2.94 12.5-.08 1.7-.41 3.37-.63 5.05-.47 3.51-.52 7.05-.85 10.58-.02.2-.05.43-.21.55-.13.1-.3.11-.47.11-4.48.06-8.96.04-13.44-.07-.05-1.72 1.08-3.27 1.23-4.99.25-2.72-2.23-5.18-4.94-5.5-2.71-.32-5.4 1.12-7.2 3.17-.79.89-1.47 2.02-1.31 3.2.17 1.29 1.32 2.41 1.08 3.68-3.76-.03-7.14-.05-10.9-.08" class="cls-1"/><path d="M404.31 155.35c-.52 3.77-.52 7.7-1.03 11.47-.45 3.32-.98 6.82-3.06 9.45-2.48 3.14-6.62 4.38-10.55 5.14a75.693 75.693 0 0 1-20.98 1.04c-.18-.02-.38-.04-.51-.16-.19-.16-.21-.45-.21-.71.01-1.82.29-3.63.5-5.44.56-4.84.61-9.75.15-14.6-.22-2.28-.54-4.62.11-6.82" class="cls-1"/><path d="M367.7 96.88c.02.77.03 1.53 0 2.3-.02.37-.04.75-.08 1.12s-.07.63-.13 1.01c-.12.77-.25 1.53-.31 2.31-.06.72-.07 1.45-.03 2.18.05.86.16 1.72.35 2.56.05.25.37.43.61.35.27-.09.4-.34.35-.61-.16-.74-.25-1.34-.3-2.08s-.05-1.47 0-2.21c.01-.17.03-.34.05-.52 0-.09.02-.18.03-.27 0-.04 0-.07.01-.11v-.03c0-.03 0-.05.01-.08.05-.36.11-.72.16-1.09.12-.77.22-1.53.26-2.31.04-.84.03-1.68.02-2.52 0-.26-.22-.51-.5-.5s-.5.22-.5.5Zm8.38 1.24c.26 0 .51-.23.5-.5s-.22-.5-.5-.5c-.26 0-.51.23-.5.5s.22.5.5.5Z"/><path d="M375.96 97.57c1-2.69 2.01-5.39 2.49-8.22.49-2.86.45-5.8 1.02-8.64m-1.87 20.21c2.14 0 4.04-1.35 5.62-2.8 3.89-3.56 6.88-8.1 8.61-13.08m-11.8-4.48c-6.86-2.61-9.82-10.98-10.39-18.31-.33-4.24-.05-8.6 1.5-12.56 2.27-5.81 7.32-10.45 13.29-12.24 2.77-.83 5.67-1.06 8.56-1.12 3-.06 6.03.06 8.92.87 5.54 1.56 10.13 5.56 13.46 10.25 4.05 5.72 6.47 12.73 5.98 19.72-.49 6.99-4.1 13.86-10.02 17.6s-12.87 2.59-19.84.11m-23.47 97.14c-.81.9-2.89 1.58-4.1 1.61s-2.4-.27-3.57-.55c-2.65-.65-5.31-1.27-8.01-1.57-1.71-.19-3.59-.2-4.96.83" class="cls-1"/><path d="M106.52 139.27c1.17 7.81-.5 16.21.08 24.09.92 12.48 7.54 24.66 5.12 36.94-1.36 6.9-5.49 13.1-6.2 20.1-.91 8.98 3.94 17.45 5.69 26.31 1.39 7.05.8 14.32.96 21.51.45 21.13 7.37 42.31 5.4 63.35m2.61-197.37c-2.97 8.28-1.13 17.47 1.54 25.85 2.67 8.38 6.18 16.67 6.52 25.46.34 8.73-2.48 17.24-3.45 25.92-1.8 16.14 2.82 32.22 4.61 48.36 2.61 23.56-.56 48.43 3.57 71.77m9.43-199.06c-6.04 18.43.91 38.31-.2 57.67-.35 6.12-1.51 12.19-1.61 18.32-.21 12.55 4.02 24.77 4.87 37.29.48 7.04-.12 14.11.06 21.16.54 21.52 8.22 42.53 7.53 64.05" class="cls-2"/><path d="M184.17 93.65c.26 0 .51-.23.5-.5s-.22-.5-.5-.5c-.26 0-.51.23-.5.5s.22.5.5.5Z"/><path d="M183.95 93.31c2.77 4.86.14 10.89-.04 16.48-.1 3.27.67 6.49 1.25 9.7 1.43 7.94 1.72 16.08.84 24.1m15.07-57.37c1.72 3.83 1.35 8.27.53 12.39-.82 4.12-2.04 8.23-1.91 12.43.07 2.32.55 4.6.97 6.88 1.97 10.87 2.42 22.57 1.31 33.56" class="cls-2"/><path d="M217.46 79.97c.26 0 .51-.23.5-.5s-.22-.5-.5-.5c-.26 0-.51.23-.5.5s.22.5.5.5Z"/><path d="M217.1 79.83c5.76 7.17 6.2 17.26 4.83 26.35s-4.26 18.02-4.23 27.21c.04 12.12 5.15 23.64 6.81 35.65 2.42 17.59-2.66 35.25-3.9 52.97-.63 9.04-.26 18.12.11 27.18 1.13 27.75 2.35 56.22 3.48 83.96m18.38-256.29c4.14 8.81 1.45 19.16 2.09 28.88.64 9.73 4.7 19.23 3.59 28.92-.65 5.72-3.08 11.12-3.76 16.84-.6 5.06.18 10.17.97 15.2.81 5.21 1.63 10.43 2.44 15.64m12.45-99.33c2.31 4.2 3.05 9.23 2.07 13.91-.58 2.76-1.73 5.37-2.4 8.11-1.35 5.52-.7 11.31-.04 16.95l4.17 35.62c.76 6.46 1.51 12.93 2.27 19.39" class="cls-2"/><path d="M276.26 88.58c.26 0 .51-.23.5-.5s-.22-.5-.5-.5c-.26 0-.51.23-.5.5s.22.5.5.5Z"/><path d="M276.26 88.09c1.4 2.67 1.17 6.46.27 9.33-.9 2.87-2.32 5.58-3.05 8.5-1.35 5.47-.16 11.2.5 16.8.91 7.75.79 15.59.69 23.39-.02 1.29-.03 2.62.43 3.83.46 1.22 1.35 2.22 2.04 3.34 3.52 5.71 1.09 13.15 2.24 19.76m9.23-81.01c2.06 2.94 2.21 7.6 1.39 11.09-.82 3.5-2.36 6.79-3.2 10.28-1.64 6.83-.48 14.01 1.26 20.81 1.75 6.8 4.08 13.5 4.83 20.48.51 4.81.26 9.66 0 14.48m27.03 3.84c2.68 3.54 1.91 8.03 1.21 12.42-1.27 7.97-2.34 16.11-1.09 24.08 1.07 6.85 3.82 13.42 4.28 20.34.79 11.8-5.08 22.98-6.71 34.7-1.7 12.26 1.29 24.86-.81 37.06-.56 3.26-1.49 6.49-1.48 9.8.02 6.77 3.96 13.38 2.6 20.01m17.51-152.65c4.18 11.01-2.78 23.23-1.47 34.93.62 5.61 3.12 10.81 4.78 16.21a55.863 55.863 0 0 1 2.06 23.02c-1.53 12.67-7.4 24.6-8.18 37.34-.23 3.72-.01 7.45.2 11.17.58 10.13 1.18 20.34 3.77 30.15" class="cls-2"/><path d="M159.97 33.28c-3.06-5.44-8.64-11.54-14.82-10.4-6.15 1.14-9.37 8.78-10.21 13.5-1.37 7.67 1.58 18.67 10.21 21.41 5.5 1.75 12.75-.04 16.34-5.3m0 0c4.12-6.03 1.16-13.28 0-16.11-.4-.97-.91-2.02-1.52-3.11" class="cls-1"/><path d="M157.67 29.57c.83-1.52 2.92-4.63 5.5-6.15 5.87-3.46 13.53-1.26 17.29 1.4 12.38 8.76 8.05 40.45-2.43 43.79-2.27.72-8.2 1.19-19.79-12.51m-10.11 2.48c-.42 1.2-.22 1.99-.07 2.26 1.08 1.97 5.96 1.46 6.49 0 .18-.5-.2-1.41-1.56-2.69" class="cls-1"/><path d="M173.21 68.64c-.42 1.2-.15 1.86 0 2.13 1.08 1.97 5.96 1.46 6.49 0 .18-.5-.09-1.28-1.45-2.56m-26.08-6.14c1.19.74 1.55 2.72 1.77 4.11s.04 2.8-.19 4.19c-.12.73-.25 1.48-.14 2.21.17 1.17.91 2.19 1.76 3.01s1.83 1.51 2.65 2.36a9.356 9.356 0 0 1 2.59 6.09c.04 1.17-.13 2.35.04 3.51s.79 2.36 1.89 2.77" class="cls-1"/><path d="M176.78 72.31c.36 1.55-.57 3.08-1.55 4.33-3.3 4.18-7.69 7.38-11.04 11.52-.8.99-1.58 2.19-1.35 3.44.25 1.4 1.62 2.25 2.75 3.12 2.32 1.79 4.05 4.33 4.85 7.15m130.92 229.74c-14.09 4.24-26.58 3.62-30.4-2.4-1.89-2.98-2-7.84-2.1-12.22-.12-5.56.58-5.5.89-12.48.18-3.96-.02-7.93-.19-11.89-.09-2.02-.16-4.1.51-6 .51-1.46 1.47-2.73 2.39-4.04.95-1.36 1.84-2.41 2.47-3.13" class="cls-1"/><path d="M269.77 297.69c.28-1.74 1.69-2.97 3.1-4.02 1.22-.92 2.57-1.71 3.64-2.79.14-.14.39-.02.35.18-.36 1.6-1.26 3.06-2.42 4.24-1.32 1.34-2.96 2.33-4.66 3.14" class="cls-1"/><path d="M269.73 298.41c-1.36-.06-2.91-.16-4.09-.84-.89-.51-1.57-1.31-2.22-2.1-.88-1.06-1.78-2.13-2.37-3.37-.04-.08.01-.17.1-.19 1.79-.29 3.68.22 5.19 1.23s2.73 2.6 3.5 4.32m-.96 19.1c.47-4.19 2.51-8.14 5.46-11.15.68-.69 1.42-1.35 2.26-1.83.1-.06.23.02.23.14-.05 1.51-.66 2.96-1.44 4.26-.82 1.37-1.84 2.62-2.69 3.98-1.11 1.78-2.1 3.86-3.79 5.11" class="cls-1"/><path d="M268.86 317.07c-.82.11-1.51-.56-2.06-1.17-.3-.34-.6-.67-.83-1.07-.38-.66-.52-1.43-.65-2.19l-.48-2.75c-.01-.07.07-.11.12-.07 1.3 1 2.27 2.39 3.17 3.76.47.72.96 1.54.79 2.38m9.07-33.38c-.67-.34-1.16-.95-1.63-1.54-1.09-1.39-2.2-2.83-2.67-4.53.55-.14 1.13.17 1.54.57s.72.9 1.16 1.26c.3.25.67.45.89.78.15.24.21.53.26.82l.66 3.66c.08.45.17.93.43 1.31s.76.64 1.19.49c.15-.05.29-.15.44-.14.3 0 .47.34.64.59.31.46.84.77 1.4.8.12 0 .25 0 .36-.06.24-.13.29-.45.27-.73-.07-.8-.54-1.52-1.08-2.12s-1.17-1.12-1.68-1.75c-.35-.43-.64-.92-1.08-1.25-.41-.32-.91-.63-1.41-.78" class="cls-1"/><path d="M282.67 284.85c.62.84 1.44 1.55 2.15 2.31.52.55 1.21 1.13 1.95.94.42-.11.79-.47 1.22-.41.28.04.5.25.75.38.65.35 1.56.09 1.93-.56.48-.85-.03-1.98-.83-2.55s-1.8-.74-2.75-1c-2.17-.61-4.14-1.75-6.08-2.88" class="cls-1"/><path d="M282.19 280.56c.86.82 2.07 1.5 3.12 2.05l4.56 2.4c.85.45 1.71.9 2.65 1.1s1.98.13 2.77-.42c.17-.12.33-.26.53-.31.34-.09.72.08 1.05-.06.38-.16.49-.64.54-1.06.11-.84.19-1.77-.3-2.46-.3-.41-.76-.67-1.23-.86-.68-.27-1.39-.43-2.11-.58-3.71-.8-6.76-1.6-10.56-1.5" class="cls-1"/><path d="M283.35 278.12c2.76.26 4.69.45 7.41-.09 2.34-.47 4.52-1.51 6.84-2.07.66-.16 1.49-.22 1.87.35.22.34.18.78.14 1.19l-.18 1.51c-.02.2-.05.41-.15.59-.17.33-.54.5-.89.61-2.03.66-4.25.18-6.39-.2" class="cls-1"/><path d="M297.48 275.98c.65-.14 1.13-.35 1.38-.83s.19-1.08-.03-1.58c-.64-1.48-2.39-2.11-3.98-2.32-.56-.07-1.14-.11-1.68.02-.58.15-1.09.48-1.59.81-2.77 1.82-5.11 3.47-8.34 4.23" class="cls-1"/><path d="M281.19 274.06c.26-1.22.84-2.32 1.73-3.2.47-.47 1.02-.87 1.5-1.33 1.21-1.17 1.96-2.71 2.89-4.1s2.2-2.72 3.84-3.04c.7-.13 1.6.05 1.79.74.06.23.04.5.18.69.11.15.3.21.47.3.78.41 1.08 1.42.93 2.28s-.68 1.62-1.2 2.33a56.17 56.17 0 0 1-3.86 4.71M275 279.33c-1.36.03-3.31-.72-4.04-1.87-.23-.37-.41-.79-.38-1.22.05-.74.68-1.34 1.39-1.57s1.47-.17 2.21-.1c.31.03.63.06.93.17.71.26 1.31.96 2.05.83" class="cls-1"/><path d="M277.9 274.26c-1.6-.71-3.21-1.43-4.68-2.39s-2.79-2.19-3.64-3.73c-.14-.26-.28-.53-.49-.74s-.53-.34-.81-.24c-.46.16-.53.78-.43 1.26.27 1.27 1.17 2.32 1.58 3.55.19.58.28 1.19.53 1.75s.84 1.12 1.45 1.17" class="cls-1"/><path d="M272.06 271.02c-.81-.7-1.08-2.08-1.3-3.13-.21-.98-.4-1.96-.58-2.95-.09-.51-.18-1.05-.06-1.55s.54-.98 1.06-1.01c.41-.02.85.22 1.2.01.2-.11.3-.34.46-.51.44-.47 1.25-.43 1.76-.03s.76 1.04.86 1.68.09 1.29.2 1.92c.24 1.5 1.12 2.81 1.91 4.11s1.53 2.56 1.46 4.08" class="cls-1"/><path d="M277.21 268.88c-.11-1.92-.1-3.84.02-5.75.04-.57.09-1.16.37-1.66.33-.61.97-1.02 1.64-1.2s1.39-.13 2.07 0c.26.05.53.12.72.29.16.14.26.34.33.54.65 1.69-.04 3.57-.55 5.31a25.93 25.93 0 0 0-1.04 7.58" class="cls-1"/><path d="M280.81 272.45c0-1.34.57-2.61 1.38-3.67s1.78-2.02 2.46-3.17c.66-1.11 1.06-2.37 1.79-3.43.39-.57 1.11-1.12 1.71-.77.63.38.43 1.36.79 2m-7.47 10.76c-.43-.14-1.21-.28-1.65-.4-.34-.09-.71-.18-1.05-.08-.32.1-.56.35-.77.61a6.73 6.73 0 0 0-1.4 3.04c-.05.26-.08.54 0 .8.08.29.28.52.47.75.83.98 1.77 2.02 3.03 2.21.76.11 1.56-.12 2.14-.63.71-.62 1.05-1.58 1.12-2.52.07-.85-.06-1.73-.47-2.48s-1.15-1.33-1.99-1.46m-11.6 21.6c-2.4-5.13-10.05-24.27-9.92-29.93.14-5.66.96-11.28 1.21-16.94.24-5.38-.03-10.76-.26-16.13-.12-2.74-.21-5.56.7-8.15.71-2.01 1.98-3.77 3.24-5.49 1.07-1.46 2.14-2.92 3.36-4.25" class="cls-1"/><path d="M260.61 239.49c.38-2.36 2.29-4.03 4.21-5.46 1.66-1.25 3.49-2.32 4.94-3.78.2-.2.53-.02.47.25-.49 2.17-1.71 4.16-3.28 5.75-1.79 1.82-4.02 3.16-6.32 4.26" class="cls-1"/><path d="M260.55 240.48c-1.84-.09-3.94-.22-5.55-1.13-1.21-.69-2.13-1.78-3.02-2.85-1.2-1.44-2.41-2.9-3.22-4.58-.05-.1.02-.23.13-.25 2.43-.39 4.99.29 7.04 1.67s3.71 3.53 4.75 5.86m-1.28 25.9c.64-5.69 3.41-11.05 7.41-15.14.92-.94 1.92-1.83 3.07-2.48.14-.08.31.03.31.19-.07 2.05-.9 4.02-1.96 5.78-1.12 1.86-2.5 3.56-3.65 5.4-1.51 2.42-2.84 5.24-5.14 6.93" class="cls-1"/><path d="M259.37 265.79c-1.11.15-2.05-.76-2.79-1.59-.41-.46-.82-.92-1.12-1.45-.52-.9-.71-1.95-.89-2.97l-.65-3.73c-.02-.09.09-.15.16-.1 1.77 1.36 3.08 3.24 4.31 5.11.64.97 1.3 2.08 1.07 3.23m12.31-45.3c-.92-.46-1.58-1.29-2.21-2.09-1.48-1.88-2.99-3.84-3.62-6.15.75-.19 1.53.23 2.09.78s.98 1.22 1.57 1.71c.41.34.91.61 1.2 1.06.21.33.28.73.35 1.11.3 1.66.6 3.31.89 4.97.11.62.23 1.26.59 1.77s1.03.87 1.62.67c.2-.07.39-.2.6-.2.41 0 .64.46.87.8.42.63 1.14 1.04 1.9 1.09.17 0 .34 0 .49-.08.33-.18.4-.62.36-.99-.1-1.09-.73-2.07-1.46-2.88s-1.59-1.52-2.28-2.37c-.47-.58-.87-1.25-1.46-1.7-.56-.43-1.23-.85-1.91-1.06" class="cls-1"/><path d="M278.11 222.07c.84 1.14 1.95 2.1 2.92 3.14.7.75 1.65 1.54 2.64 1.28.57-.15 1.07-.64 1.66-.56.38.05.68.34 1.02.52.89.47 2.12.12 2.62-.76.66-1.16-.05-2.69-1.13-3.45s-2.45-1-3.73-1.36c-2.94-.82-5.61-2.37-8.25-3.91" class="cls-1"/><path d="M277.46 216.25c1.16 1.12 2.81 2.04 4.24 2.79 2.06 1.09 4.13 2.17 6.19 3.26 1.15.61 2.33 1.22 3.6 1.5s2.69.17 3.76-.57c.23-.16.45-.35.72-.42.46-.13.98.1 1.42-.08.52-.22.66-.87.73-1.43.14-1.14.26-2.4-.41-3.34-.4-.56-1.03-.91-1.67-1.17-.92-.37-1.89-.58-2.86-.79-5.04-1.09-9.18-2.18-14.33-2.04" class="cls-1"/><path d="M279.04 212.93c3.75.35 6.37.61 10.06-.13 3.17-.63 6.14-2.05 9.28-2.81.89-.22 2.03-.29 2.53.47.3.46.25 1.06.18 1.61-.08.68-.16 1.36-.25 2.04-.03.27-.07.55-.2.8-.23.44-.73.67-1.2.83-2.75.9-5.77.24-8.67-.28" class="cls-1"/><path d="M298.21 210.04c.88-.19 1.53-.48 1.87-1.13s.26-1.46-.04-2.14c-.86-2.01-3.24-2.87-5.4-3.15-.76-.1-1.54-.15-2.28.03-.79.2-1.48.66-2.16 1.1-3.75 2.48-6.94 4.71-11.31 5.74" class="cls-1"/><path d="M276.11 207.42a8.641 8.641 0 0 1 2.34-4.34c.64-.64 1.38-1.18 2.04-1.81 1.64-1.58 2.65-3.68 3.92-5.57s2.98-3.69 5.22-4.12c.95-.18 2.17.07 2.43 1 .09.31.05.68.25.94.15.2.41.29.63.4 1.06.55 1.47 1.93 1.26 3.1s-.92 2.2-1.62 3.16a80.011 80.011 0 0 1-5.23 6.39m-19.65 8.01c-1.85.04-4.49-.98-5.48-2.54-.31-.5-.55-1.07-.52-1.65.06-1.01.93-1.82 1.89-2.13s2-.23 3-.13c.43.04.86.09 1.26.24.96.36 1.78 1.3 2.78 1.13" class="cls-1"/><path d="M271.64 207.7c-2.17-.97-4.36-1.94-6.35-3.24s-3.79-2.97-4.93-5.06c-.19-.35-.37-.73-.66-1.01s-.72-.46-1.1-.32c-.62.22-.71 1.06-.58 1.71.37 1.72 1.58 3.15 2.14 4.82.26.78.38 1.62.72 2.37s1.14 1.52 1.97 1.59" class="cls-1"/><path d="M263.72 203.3c-1.1-.94-1.47-2.82-1.77-4.24-.28-1.33-.54-2.66-.79-4-.13-.7-.25-1.42-.08-2.11s.73-1.33 1.44-1.37c.55-.03 1.15.29 1.63.02.27-.16.41-.46.62-.69.59-.64 1.7-.58 2.39-.04s1.03 1.42 1.17 2.28.12 1.75.27 2.61c.33 2.04 1.52 3.82 2.59 5.58s2.08 3.48 1.98 5.54" class="cls-1"/><path d="M270.71 200.39c-.15-2.6-.14-5.21.03-7.81.05-.78.12-1.58.5-2.26.45-.83 1.31-1.39 2.23-1.62s1.89-.17 2.81 0c.35.07.71.16.98.4.22.19.35.46.45.73.88 2.3-.06 4.84-.75 7.2-.97 3.34-1.45 6.82-1.41 10.29" class="cls-1"/><path d="M275.59 205.25c0-1.82.77-3.54 1.87-4.99s2.41-2.74 3.35-4.3c.9-1.5 1.44-3.21 2.42-4.66.53-.77 1.51-1.52 2.32-1.04.86.51.59 1.84 1.07 2.71m-10.13 14.61c-.59-.19-1.64-.38-2.24-.54-.47-.13-.96-.24-1.42-.1-.43.13-.76.47-1.05.82a8.93 8.93 0 0 0-1.89 4.13c-.06.36-.1.73 0 1.08.11.39.38.71.64 1.02 1.12 1.33 2.4 2.74 4.12 3 1.03.15 2.12-.17 2.91-.85.97-.84 1.42-2.15 1.52-3.42.09-1.15-.08-2.35-.64-3.36s-1.56-1.81-2.7-1.99M69.11 100.78c.71 5.54 1.44 8.02-1.51 13.27s-8.16 9.19-14.02 10.6c4.36-1.47 9.39-.79 13.2 1.79 4.07 2.75 6.57 7.37 7.74 12.14 1.17 4.77.87 10.52 1.15 15.06-.11-8.71-.06-18.44 4.78-25.68 2.95-4.41 7.8-7.74 13.1-7.95-5.76 1.03-11.93-.62-16.41-4.38s-7.45-8.99-8.03-14.85" class="cls-1"/><path d="M72.08 94.02c10.22-3.1 11.29-12.41 9.87-19.82 1.72 4.8 3.5 9.71 6.81 13.59 3.31 3.88 8.52 6.56 13.49 5.44-5.52 1.53-10.44 5.11-13.59 9.89-3.15 4.78-4.5 10.71-3.74 16.38-1.03-8.76-4.2-24.95-12.85-25.47" class="cls-1"/></svg>