<?xml version="1.0" encoding="UTF-8"?>
<svg id="Layer_1" xmlns="http://www.w3.org/2000/svg" viewBox="0 0 63.66 69.92">
  <defs>
    <style>
      .cls-1, .cls-2 {
        fill: #fff;
      }

      .cls-2 {
        isolation: isolate;
        opacity: .99;
      }

      .cls-3 {
        opacity: .98;
      }
    </style>
  </defs>
  <path id="circle8284" class="cls-2" d="M16.82,25.47c-1.31,0-2.5.75-3.08,1.92-.86,1.72-.16,3.8,1.55,4.66h0c1.72.86,3.8.16,4.66-1.55,0,0,0,0,0,0,.86-1.72.16-3.8-1.55-4.66-.49-.25-1.03-.37-1.58-.37ZM14.21,31.71l-.4,1.94.52.21.57-1.63c-.15-.1-.3-.2-.44-.32-.07-.06-.13-.12-.19-.18l-.05-.02h0ZM13.94,32.31l-.86.14.08.25h0l.71-.02v-.06s.08-.31.08-.31h0s0,0,0,0Z"/>
  <g id="g933">
    <g id="path5144">
      <path class="cls-1" d="M34.48,40.42c.66-.43,1.64-.87,2.96-1.33,1.35-.46,2.9-.7,4.64-.7,2.16,0,4.08.39,5.74,1.16,1.7.77,3.13,1.85,4.29,3.25s2.03,3.05,2.61,4.98c.62,1.93.93,4.06.93,6.38,0,2.43-.37,4.64-1.1,6.61-.7,1.93-1.7,3.57-3.01,4.93-1.31,1.35-2.9,2.4-4.75,3.13-1.85.73-3.94,1.1-6.26,1.1-2.51,0-4.73-.17-6.67-.52-1.93-.35-3.52-.7-4.75-1.04V25.18l5.39-.93v16.17ZM34.48,64.53c.54.15,1.29.31,2.26.46,1,.12,2.24.17,3.71.17,2.9,0,5.22-.95,6.96-2.84,1.74-1.93,2.61-4.66,2.61-8.17,0-1.55-.15-2.99-.46-4.35s-.81-2.51-1.51-3.48c-.7-1-1.6-1.78-2.72-2.32-1.08-.58-2.4-.87-3.94-.87s-2.82.25-4.06.75c-1.24.5-2.18,1.02-2.84,1.56v19.07Z"/>
    </g>
    <g id="path6010-7-78" class="cls-3">
      <path class="cls-1" d="M47.35,0c-2.12.55-3.72,2.3-4.1,4.48-.37,2.17.55,4.36,2.35,5.59,2.12-.55,3.72-2.3,4.1-4.48.37-2.17-.55-4.36-2.35-5.59Z"/>
    </g>
    <g id="path6012-2-8" class="cls-3">
      <path class="cls-1" d="M58.5,12.79c-.1,0-.21,0-.31.01-2.06.12-3.89,1.34-4.76,3.19.01.02.02.05.03.07-.01.02-.02.05-.03.07.87,1.85,2.7,3.07,4.76,3.19.1,0,.2.01.31.01.01,0,.03,0,.04,0,.01,0,.03,0,.04,0,.1,0,.2,0,.31-.01.06,0,.11,0,.17,0,2-.17,3.75-1.39,4.59-3.18-.01-.02-.02-.05-.03-.07.01-.02.02-.05.03-.07-.87-1.85-2.7-3.07-4.76-3.19-.01,0-.03,0-.04,0-.09,0-.18,0-.27-.01-.01,0-.03,0-.04,0-.01,0-.03,0-.04,0h0Z"/>
    </g>
    <g id="path6014-8-6">
      <path class="cls-1" d="M46.52,15c-.49-.02-.98-.02-1.47,0-8.01.37-14.2,6.15-13.91,13,0,.1.02.21.03.31h3.31v-.54h0c0-.26.01-.52.04-.77,0-.09,0-.18,0-.27.46-6.05,5.91-10.96,12.96-11.67-.32-.04-.64-.06-.97-.08h0Z"/>
    </g>
    <g id="path6018-9-6" class="cls-3">
      <path class="cls-1" d="M16.01,0c2.12.55,3.72,2.3,4.1,4.48.37,2.17-.55,4.36-2.35,5.59-2.12-.55-3.72-2.3-4.1-4.48-.37-2.17.55-4.36,2.35-5.59Z"/>
    </g>
    <g id="path6020-96-7" class="cls-3">
      <path class="cls-1" d="M5.15,12.79c.1,0,.21,0,.31.01,2.06.12,3.89,1.34,4.76,3.19-.01.02-.02.05-.03.07.01.02.02.05.03.07-.87,1.85-2.7,3.07-4.76,3.19-.1,0-.2.01-.31.01-.01,0-.03,0-.04,0-.01,0-.03,0-.04,0-.1,0-.2,0-.31-.01-.06,0-.11,0-.17,0-2-.17-3.75-1.39-4.59-3.18.01-.02.02-.05.03-.07-.01-.02-.02-.05-.03-.07.87-1.85,2.7-3.07,4.76-3.19.01,0,.03,0,.04,0,.09,0,.18,0,.27-.01.01,0,.03,0,.04,0,.01,0,.03,0,.04,0h0Z"/>
    </g>
    <g id="path8195" class="cls-3">
      <path class="cls-1" d="M45.6,22.21c-1.81,1.23-2.73,3.42-2.35,5.59.38,2.17,1.98,3.93,4.1,4.48,1.81-1.23,2.73-3.42,2.35-5.59-.38-2.17-1.98-3.93-4.1-4.48Z"/>
    </g>
    <g id="path8440">
      <path class="cls-1" d="M17.04,15c.49-.02.98-.02,1.47,0,8.01.37,14.2,6.15,13.91,13,0,.1-.02.21-.03.31h-3.31v-.54h0c0-.26-.01-.52-.04-.77,0-.09,0-.18,0-.27-.46-6.05-5.91-10.96-12.96-11.67.32-.04.64-.06.97-.08h0Z"/>
    </g>
  </g>
</svg>