<svg xmlns="http://www.w3.org/2000/svg" id="Layer_1" data-name="Layer 1" viewBox="0 0 475 356"><defs><style>.cls-1,.cls-2{fill:none;stroke:#000}.cls-1{stroke-miterlimit:10}.cls-2{stroke-linejoin:round}</style></defs><path d="M134.75 92.04c-18.72.37-37.89-.93-56.38-3.9-5.13-.82-10.37-1.82-14.82-4.5-6.56-3.95-10.54-11.01-13.68-17.99-3.98-8.86-7.07-18.12-9.22-27.6-.41-1.81 1.05-3.54 2.91-3.48l17.02.53c15.6.49 32.04 1.22 45.24 9.55 18.26 11.53 25.41 34.2 31.23 55 1.46 5.21 3.02 10.6 6.58 14.67 4.83 5.52 12.53 7.62 19.85 8.04 16.92.97 34.14-5.94 45.69-18.35 12.16-13.06 17.88-31.26 28.66-44.44 5.48-7.87-41.07 9.72-61.01 16.68-12.16 4.24-24.92 8.88-33.29 18.68-11.87 13.9-11.71 34.1-10.92 52.36l3.33 76.85c.22 5.07.07 10.97-3.97 14.04-2.08 1.58-4.79 2.03-7.38 2.38-8.46 1.12-17 1.62-25.52 1.5-12.07-.17-25.57-2.38-32.74-12.09-4.55-6.17-5.59-14.14-7.5-21.56a85.672 85.672 0 0 0-11.9-26.46c-.71-1.06-.07-2.47 1.19-2.59 13.9-1.32 27.95-2.4 41.67.07 14.64 2.64 29.1 9.89 37.15 22.4 5.48 8.52 7.58 18.74 8.93 28.78 1.96 14.66 2.51 32.08 1.64 46.84" class="cls-1"/><path d="M136 226.92c4.82-17.65.42-40.43 10.6-57.93 1.95-3.35 4.19-6.63 7.26-9.01 5.89-4.59 13.83-5.25 21.28-5.73l46.01-2.98c1.2-.08 2.2.91 2.14 2.11-.56 9.71-1.4 19.57-5.42 28.39-5.54 12.16-16.62 21.03-28.62 26.92-11.99 5.88-25.06 9.17-37.81 13.14-5.51 1.72-11.87 2.98-15.79 7.21" class="cls-1"/><path d="M39.57 274.91c76.41 3.62 152.99 3.78 229.42.51 3.97-.17 8.21-.44 11.39-2.83 4.06-3.05 5.2-8.75 4.59-13.79-.61-5.04-2.63-9.79-3.68-14.76-3.57-16.89 4.89-34.78 18.2-45.79 13.3-11.01 30.68-15.98 47.86-17.76 10.56-1.09 21.5-1.04 31.47 2.64 14.11 5.21 24.94 17.39 30.84 31.23 5.9 13.84 7.29 29.23 6.64 44.26-.6 13.76-3.29 28.35-12.77 38.34-9.9 10.42-25.08 13.65-39.37 15.24-14.4 1.6-29.24 2.04-43.11-2.14-13.87-4.18-26.77-13.59-32.16-27.04-1.9-4.74-2.96-10.06-6.49-13.75-8.41-8.78-22.93-2.49-35.07-3.03-2.2-.1-4.5-.49-6.24-1.84-2.75-2.13-3.39-5.98-3.63-9.45-1.12-16.21 1.79-32.4 4.69-48.39.87-4.81 1.77-9.71 4.02-14.05 3.13-6.07 8.59-10.53 13.7-15.06 22.92-20.33 41.3-45.18 59.44-69.88a1.14 1.14 0 0 1 1.64-.22c9.5 7.47 19.29 14.57 29.35 21.27 2.75 1.83 5.68 3.69 8.98 3.96 5.22.41 9.8-3.21 13.74-6.65a864.458 864.458 0 0 0 65.24-63.32c.75-.81 2.08-.23 1.99.88l-4.13 50.59" class="cls-1"/><path d="M439.73 62.47c-20.07-4.51-39.33-.31-58.79-3m21.54 39.47c-1.88 29.69-5.09 69.65-2.87 99.32" class="cls-1"/><path d="M353.92 208.78v8.21c13.58 1.41 18.67 14.15 19.24 21.22l-2.83.28-2.83.28c0-.57-1.41-14.15-13.3-15.84v24.9c5.66.57 19.24 2.83 19.24 12.45 0 5.94-1.98 11.03-6.22 14.71-3.96 3.4-9.34 4.81-13.3 4.81v9.34h-5.66v-10.19c-18.96-3.4-18.96-19.24-18.96-19.52h5.66c0 .57.28 10.75 13.3 13.58v-20.37c-5.94-.85-17.54-3.68-18.96-14.15-.85-5.38.57-10.47 3.96-14.15 3.96-4.24 9.9-6.51 15-7.36v-8.21h5.66m-5.37 38.48V223.2c-3.68.57-7.92 2.26-10.75 5.38-2.26 2.55-3.11 5.94-2.55 9.62.85 5.94 8.77 8.21 13.3 9.05m5.94 26.88c3.11-.28 6.79-1.13 9.34-3.4 2.55-2.55 3.96-5.94 3.96-10.47 0-4.24-7.92-6.22-13.3-6.79v20.65m-.57-66.34h-5.66c-.55 0-1 .45-1 1v7.37c-5.99 1.15-11.33 3.87-14.73 7.51-3.57 3.87-5.11 9.33-4.22 14.99 1.05 7.79 7.77 13.05 18.94 14.85v18.24c-11.16-3.03-11.3-11.92-11.3-12.31 0-.27-.11-.52-.29-.71s-.44-.29-.71-.29h-5.66c-.55 0-1 .45-1 1 0 .68.22 16.54 18.96 20.35v9.36c0 .55.45 1 1 1h5.66c.55 0 1-.45 1-1v-8.36c3.83-.21 8.96-1.61 12.95-5.02 4.3-3.73 6.57-9.08 6.57-15.47 0-9.83-12.8-12.59-19.24-13.35v-22.8c10.2 2.3 11.29 14.53 11.3 14.66.01.28.13.55.34.73.19.16.42.26.67.26h.09l2.83-.28 2.83-.28a1 1 0 0 0 .9-1.07c-.64-7.94-6.29-20.16-19.24-22.02v-7.32c0-.55-.45-1-1-1Zm-6.37 38.25c-4.38-.97-10.62-3.17-11.31-7.97-.53-3.47.26-6.52 2.3-8.81 2.79-3.07 6.68-4.33 9-4.84v21.62Zm7.94 26.99v-18.41c5.63.76 11.3 2.77 11.3 5.66 0 4.09-1.19 7.28-3.65 9.74-1.77 1.56-4.34 2.57-7.65 3.01Z"/><path d="M354.35 208.47c.08-2.72 1.69-5.35 4.08-6.66 1.19-.65 2.53-.99 3.88-1.2 7.72-1.18 15.41 1.69 23.12 2.92 2.73.44 5.59.66 8.22-.2s5-2.99 5.41-5.73" class="cls-2"/><path d="M329.26 258.92c-.28-.66-.66-1.26-1.19-1.76-.48-.45-1.04-.81-1.65-1.08-1.29-.57-2.71-.8-4.11-.88-3.36-.19-6.8.39-9.94 1.6-1.63.63-3.2 1.42-4.66 2.39s-2.93 2.19-4.46 3.19c-2.84 1.86-5.87 3.16-9.09 4.16s-6.62 1.71-9.99 2.3l-1.23.21c-.26.04-.42.37-.35.61.09.28.34.39.61.35 3.34-.56 6.67-1.2 9.92-2.12s6.39-2.14 9.3-3.83c1.52-.89 2.92-1.95 4.34-2.99s2.86-1.95 4.43-2.69c1.47-.69 3.08-1.24 4.71-1.62s3.23-.57 4.94-.59c.73 0 1.47.01 2.19.09.07 0 .15.02.22.02.04 0 .09.01.13.02.02 0 .16.02.04 0a10.485 10.485 0 0 1 1.49.3c.32.09.62.19.92.31.13.05-.09-.04.03.01.04.02.08.03.11.05.07.03.14.06.2.1.15.08.3.16.44.25.13.08.25.16.37.24.01.01.12.09.03.02.02.02.04.03.06.05l.21.18c.11.1.21.2.31.31.05.06.11.12.16.18.02.02.03.04.05.06-.07-.1.03.04.04.06.09.12.17.25.24.38.04.07.08.15.12.22.02.04.04.08.05.12 0 .01.06.14.02.04.1.24.33.44.61.35.23-.07.45-.35.35-.61Z"/><path d="M319.65 107.24c.92 2.18 4.53 5.08 4.4 8.7s-1.67 7.02-3.07 10.36-2.7 6.9-2.32 10.5c.67 6.44 6.54 11.87 5.78 18.3-.58 4.9-4.96 8.87-5 13.8-.04 5.63 5.52 11.37 3.5 16.63m-40.36-31.5c1.92 2.21 3.91 4.56 4.43 7.44 1.25 6.83-6.15 12.89-5.28 19.77.54 4.3 4.19 7.62 5.19 11.84 1.51 6.35-3.04 14.08.18 19.76m77.49-81.22c3.95 4.85 3.8 12.19.77 17.67-1.72 3.12-4.35 6.06-4.33 9.63.03 4.47 4.12 7.69 6.24 11.63 1.47 2.75 2 6.76 1.44 9.83m-116.12 3.85c5.15 5.51 5.29 14.77 3.21 22.02-.9 3.15-2.07 6.27-2.3 9.54-.84 11.8 10.44 22.2 8.79 33.92-.37 2.65-1.41 5.18-1.81 7.83s-.03 5.65 1.93 7.48" class="cls-2"/><path d="M381.34 59.95c.26 0 .51-.23.5-.5s-.22-.5-.5-.5c-.26 0-.51.23-.5.5s.22.5.5.5Z"/><path d="M381.47 59.97c.26 0 .51-.23.5-.5s-.22-.5-.5-.5c-.26 0-.51.23-.5.5s.22.5.5.5Z"/><path d="M381.45 59.47a58.89 58.89 0 0 0-.63 9.57L426 74.02c.29.03.61.08.79.31.15.2.14.46.13.71l-1.62 39.01c3.53-.8 7.22-.9 10.79-.31" class="cls-2"/><path d="M420.13 81.31c.26 0 .51-.23.5-.5s-.22-.5-.5-.5c-.26 0-.51.23-.5.5s.22.5.5.5Z"/><path d="M420.13 80.84c-11.3-1.47-22.61-2.82-33.94-4.06l-1.55 5.9c-.06.22-.11.46 0 .66.1.17.3.26.49.32a90.89 90.89 0 0 0 25.86 5.5c.23.01.5.05.6.25.06.11.05.25.04.37l-.24 3.52c-.47 7.05-.95 14.13-2.49 21.03l9.7-.6c.14 0 .3-.03.39-.14.06-.08.07-.18.08-.27.54-5.41 1.09-10.82 1.63-16.24.3-2.96.59-5.93.73-8.9.11-2.4.1-4.85-.55-7.16" class="cls-2"/><path d="M135.91 229.68c.26 0 .51-.23.5-.5s-.22-.5-.5-.5c-.26 0-.51.23-.5.5s.22.5.5.5Z"/><path d="M39.66 274.91c-3.28-.08-7.66 2.46-9.18 5.5-2.08 4.14.82 9.38 4.91 11.55s8.95 2.16 13.59 2.25c17.47.37 34.89 3.17 51.6 8.3 8.88 2.72 17.76 6.22 24.7 12.39 4.81 4.27 8.52 9.67 13.38 13.9 12.93 11.26 32.14 12.46 48.77 8.28s31.68-12.94 47.37-19.88 33.08-12.14 49.87-8.63c16.73 3.5 30.62 15.19 46.91 20.37 9.2 2.93 18.96 3.71 28.62 3.82 11.57.13 23.36-.71 34.16-4.85s20.6-11.98 25.02-22.67c4.47-10.82 3.52-24.25 11.61-32.71 1.17-1.23 2.57-2.41 2.98-4.06.91-3.65-3.48-6.42-7.22-6.83s-7.64.24-10.45-2.26" class="cls-1"/><path d="M39.48 274.91c6.27 1.93 11.05 6.81 16.78 9.99 9.33 5.17 21.35 5.8 28.71 13.53m10.46-21.41c2.89 2.04 4.61 5.3 6.88 8 8.68 10.35 24.48 11.86 34.07 21.38 2 1.98 3.67 4.27 5.66 6.26 12.32 12.39 34.28 11.64 46.5 24.12m-37.26-59.04c4.06.62 8.59 4.72 11.19 7.9s4.85 6.74 8.09 9.26c6.38 4.97 15.14 4.98 23.04 6.69a50.55 50.55 0 0 1 19.54 8.93c4.32 3.24 8.99 7.17 13.5 10.12m-7.91-43.54c5.17 1.37 10.17 3.49 14.3 6.9 1.83 1.51 3.52 3.19 5.33 4.73 5.43 4.58 11.95 7.74 18.71 9.92 6.12 1.97 13.1 3.83 17.4 8.61m-136-203.98c.05-.01.13-.04.23-.06 18.6-5.06 33.15-5.88 35.4-6.07 9.17-.76 26.79-8.58 63.75-39.02m-103.48 33.4c-15.85-6.88-27.85-13.79-35.95-18.9-17.13-10.79-25.84-16.28-33.87-22.64-1.8-1.42-7.14-5.72-15.15-9.87-3.42-1.77-6.34-3-8.29-3.78m95.41 191.25c.42-3.43 3.07-8.01 5.75-10.19s5.83-3.69 8.86-5.36c10.26-5.65 19.37-13.19 27.86-21.26 2.77-2.63 5.49-5.33 8.43-7.77 5.92-4.92 12.64-8.76 18.96-13.16s12.76-11.01 16.58-17.68" class="cls-1"/><path d="M135.16 230.71c.26 0 .51-.23.5-.5s-.22-.5-.5-.5c-.26 0-.51.23-.5.5s.22.5.5.5Z"/><path d="M135.16 230.23c-4.47-.33-8.69-2.37-12.24-5.11s-6.5-6.17-9.35-9.63c-2.06-2.51-4.09-5.06-6.42-7.33-2.36-2.31-5.01-4.3-7.65-6.29-4.22-3.18-8.51-6.39-13.4-8.38-2.75-1.12-5.64-1.83-8.5-2.62-7.75-2.15-15.32-4.93-22.62-8.3-2.5-1.15-5.07-2.4-7.82-2.38M237.87 58.14c1.76-1.12 16.82-7.02 24.58-5.44 8.65 1.76 16.92 9.68 15.73 15.87-1.74 9.09-23.36 12.19-25.59 8.21-1.56-2.79 5.96-9.81 9.86-12.83 4.2-3.26 13.37-10.38 24.79-7.98 7.61 1.6 18.65 7.94 18.7 17.83.06 11.23-14.1 20.22-18.7 17.75-4.05-2.18-1.84-13.88 0-19.61 1-3.13 4.38-13.16 14.69-19.61 3.68-2.3 13.39-8.38 22.58-4.27 7.24 3.24 9.86 10.87 10.57 12.93.48 1.4 2.69 8.23 0 15.81-2.45 6.92-7.64 10.67-13.53 14.76-22.09 15.34-33.14 23.01-38.47 22.81-11.83-.45-12.99-9-30.5-11.06-6.33-.74-15.77-1.85-20.66 3.96-4.26 5.06-4.59 14.79 0 19.43 9.74 9.85 37.16-7.75 42.55 0 2.58 3.72-1.39 11.12-3.96 15.92-4.41 8.24-8.68 9.4-13 17-2.16 3.79-4.24 17.54-4.93 24.63" class="cls-1"/></svg>