<svg xmlns="http://www.w3.org/2000/svg" id="Layer_1" version="1.1" viewBox="0 0 300 300"><defs><style>.st0{fill-rule:evenodd}.st0,.st1{fill:#0e0e0e}</style></defs><path d="M217.83 133.32v6.05h10.68v27.32h6.24v-27.32h10.68c0-3.34-2.71-6.05-6.05-6.05h-21.55Z" class="st0"/><path d="M172.6 166.68v-27.13a6.23 6.23 0 0 0-6.23-6.23v33.36h6.23Z" class="st1"/><path d="M139.63 160.58v-21.03c0-3.45-2.79-6.24-6.24-6.24v33.36h22.93v-6.1h-16.69Zm-19.75-24.21c-2.2-2.09-5.15-3.05-8.67-3.05H96.05v6.05h14.92c2.2 0 3.62.54 4.51 1.38.49.5.86 1.1 1.1 1.75.24.66.33 1.35.28 2.05a5.023 5.023 0 0 1-1.38 3.85c-.89.84-2.31 1.38-4.51 1.38H96.04v16.91h6.24v-10.91h8.96c1.64.02 3.27-.22 4.82-.73 1.43-.48 2.73-1.26 3.84-2.28 2.2-2.07 3.25-4.88 3.25-8.21s-1.05-6.12-3.28-8.18h.01Zm-42.74-3.05v18.53c.08 1.76-.33 3.51-1.2 5.04a7.34 7.34 0 0 1-2.98 2.76 9.31 9.31 0 0 1-4.02.88c-1.39 0-2.76-.3-4.02-.87a7.247 7.247 0 0 1-2.97-2.76 9.658 9.658 0 0 1-1.13-5.05v-12.3a6.23 6.23 0 0 0-6.23-6.23v18.44c-.06 2.71.57 5.39 1.83 7.78 1.18 2.2 2.94 4.03 5.09 5.29 2.27 1.25 4.83 1.88 7.43 1.84 2.61.05 5.18-.6 7.45-1.89 2.18-1.24 3.97-3.07 5.16-5.28a15.78 15.78 0 0 0 1.83-7.74v-12.21a6.23 6.23 0 0 0-6.23-6.23h-.01Z" class="st0"/><path d="M203.78 133.32h-18.81v6.05h24.86c0-3.34-2.71-6.05-6.05-6.05Zm-14.17 16.46h-4.65v16.91h6.23v-10.71h12.19v-6.2H189.6Z" class="st1"/></svg>